<?xml version="1.0" encoding="utf-8"?>
<!-- Generator: Adobe Illustrator 22.1.0, SVG Export Plug-In . SVG Version: 6.00 Build 0)  -->
<svg version="1.1" id="Слой_1" xmlns="http://www.w3.org/2000/svg" xmlns:xlink="http://www.w3.org/1999/xlink" x="0px" y="0px"
	 viewBox="0 0 76.1 75.9" style="enable-background:new 0 0 76.1 75.9;" xml:space="preserve">
<style type="text/css">
	.st0{fill:#C8B9FF;}
	.st1{fill:#D8F2DC;filter:url(#Adobe_OpacityMaskFilter);}
	.st2{mask:url(#mask0_742_1207_1_);}
	.st3{fill:#D8F2DC;}
	.st4{fill:#67E17A;}
</style>
<path class="st0" d="M71.5,10.6l-7.1-6.9l-7.9,7.7l7.4,8.6L71.5,10.6z"/>
<defs>
	<filter id="Adobe_OpacityMaskFilter" filterUnits="userSpaceOnUse" x="16.1" y="10.7" width="49.6" height="49.4">
		<feColorMatrix  type="matrix" values="1 0 0 0 0  0 1 0 0 0  0 0 1 0 0  0 0 0 1 0"/>
	</filter>
</defs>
<mask maskUnits="userSpaceOnUse" x="16.1" y="10.7" width="49.6" height="49.4" id="mask0_742_1207_1_">
	<path class="st1" d="M54.4,10.7L19.6,44.3c-3.7,9.4,5.9,15.8,14.1,10.6L65.7,22L54.4,10.7z"/>
</mask>
<g class="st2">
	<path class="st3" d="M54.4,10.7L19.6,44.3c-3.7,9.4,5.9,15.8,14.1,10.6L65.7,22L54.4,10.7z"/>
	<path class="st0" d="M32.2,46L26,38.3l-8.6,2.7l-1.2,16.3l15.1,2.7l7.2-10.4L32.2,46z"/>
</g>
<path class="st4" d="M39.9,49.7l5.5-5.5l-1.1-1.1l-5.5,5.5l0,0c-3.3,3.5-5.7,5.8-8.2,6.7c-2.4,0.9-5,0.5-8.6-1.6l-0.5-0.3L0,74.8
	l1.1,1.1l20.6-20.6c3.6,2,6.6,2.5,9.4,1.4C34,55.7,36.7,53.2,39.9,49.7z"/>
<path class="st4" d="M70,27.2L47.8,5l1.1-1.1l22.2,22.2L70,27.2z"/>
<path class="st4" d="M75.1,15L60.5,1.1L61.6,0l14.6,13.8L75.1,15z"/>
</svg>
