<?xml version="1.0" encoding="utf-8"?>
<!-- Generator: Adobe Illustrator 22.1.0, SVG Export Plug-In . SVG Version: 6.00 Build 0)  -->
<svg version="1.1" id="Слой_1" xmlns="http://www.w3.org/2000/svg" xmlns:xlink="http://www.w3.org/1999/xlink" x="0px" y="0px"
	 viewBox="0 0 38.1 71.1" style="enable-background:new 0 0 38.1 71.1;" xml:space="preserve">
<style type="text/css">
	.st0{fill:#C8B9FF;}
	.st1{fill:#D8F2DC;}
	.st2{fill:#67E17A;}
</style>
<path class="st0" d="M33.8,71.1C25.6,70,23.2,63.4,23,60.2l2.4-0.1c0.1,2.5,2,7.7,8.7,8.6L33.8,71.1z"/>
<path class="st1" d="M8.7,59L6.9,26h24.7v33c0,0-0.6,1.6-2.8,2.4C26.5,62.2,15.9,62.7,8.7,59z"/>
<path class="st0" d="M15.8,48.5L14.5,26h17v22.5c0,0-0.6,1-2.8,1.4C26.5,50.3,20.8,51,15.8,48.5z"/>
<path class="st1" d="M0.4,23L19,0.5l18.2,21.2c-1.3,2.4-3,4.2-7.3,5.3C17.2,29.2,10.6,28.7,0.4,23z"/>
<path class="st2" d="M18.3,0.8L19.6,0l18.6,21.6l-0.2,0.5c-0.7,1.3-1.5,2.4-2.7,3.4c-1.2,1-2.9,1.7-5.1,2.3l0,0l0,0
	c-6.4,1.1-11.3,1.5-15.9,1c-4.6-0.6-9-2.2-14.1-5.1l0.8-1.4c5.1,2.9,9.2,4.4,13.6,4.9c4.2,0.5,8.6,0.2,14.5-0.8L18.3,0.8z
	 M30.4,26.1c1.7-0.5,2.9-1.1,3.8-1.8c0.9-0.7,1.5-1.5,2.1-2.4L21.6,4.7L30.4,26.1z"/>
</svg>
