<?xml version="1.0" encoding="utf-8"?>
<!-- Generator: Adobe Illustrator 22.1.0, SVG Export Plug-In . SVG Version: 6.00 Build 0)  -->
<svg version="1.1" id="Слой_1" xmlns="http://www.w3.org/2000/svg" xmlns:xlink="http://www.w3.org/1999/xlink" x="0px" y="0px"
	 viewBox="0 0 46.3 73.6" style="enable-background:new 0 0 46.3 73.6;" xml:space="preserve">
<style type="text/css">
	.st0{fill:#67E17A;}
	.st1{fill:#D8F2DC;}
	.st2{fill:#C8B9FF;}
</style>
<path class="st0" d="M46.1,73.6C24,70.7,17.6,53.2,17.2,44.7l1.6-0.1c0.4,8,6.4,24.7,27.5,27.5L46.1,73.6z"/>
<path class="st1" d="M46.1,72.1c-20.9-2.6-26.9-19.2-27.3-27l1.6-0.1c0.4,7.3,6,23,25.9,25.5L46.1,72.1z"/>
<path class="st1" d="M32,50.1c-0.4-4.2-6.9,1.2-9.3,4l1.6,4.6l4.3,3.9C31.7,57.2,32.4,54.4,32,50.1z"/>
<path class="st2" d="M9.4,4.8C4.1,9,1.5,11.5,7.2,20.2c-4.8,4.1-7.3,6.4-6.1,11.6c2.1,5,4.2,5.4,8.4,4.7C12.1,42.5,14,45,20,45.4
	c4-0.2,5.7-2.1,8.4-7.2c2.4,4.4,4.6,4,9.6,0c4.2-3.5,6.6-5.5,2.9-10.5c2.3-1.8,3.5-2.9,4.5-6c0.7-6.8-2.3-8.7-10-10.7
	c0.8-3.6,1-5.5-2-8.9C27-2.2,24.9,0.6,21.3,6C16.6,3.5,14,3.3,9.4,4.8z"/>
<path class="st0" d="M1.8,31.6c-0.5-2.4-0.2-4,0.7-5.5c1-1.6,2.7-3.1,5.1-5.2l-1-1.2c-2.4,2-4.3,3.7-5.5,5.6c-1.2,1.9-1.5,4-0.9,6.8
	l0,0.1l0,0.1c1.1,2.6,2.2,4.1,3.8,4.9c1.4,0.7,3,0.6,4.8,0.4c0,0,0,0,0,0c0.5,1.2,1,2.3,1.5,3.2c0.6,1.1,1.1,2,1.8,2.7
	c1.5,1.5,3.4,2.2,6.5,2.4l0.1-1.6c-2.9-0.2-4.4-0.8-5.4-1.9c-0.6-0.6-1-1.3-1.6-2.4c-0.5-0.9-0.9-1.9-1.5-3.2
	c-0.1-0.2-0.2-0.4-0.3-0.6l-0.2-0.5l-0.6,0.1c-2.1,0.3-3.4,0.3-4.5-0.2C3.8,35.1,2.8,34,1.8,31.6z"/>
<path class="st1" d="M25.3,14.9c-4.5-0.2-8.9,3-9.5,8.1c-0.6,5.1,2.4,8,7.4,8.3c5,0.3,7.1-1.7,8.6-6.4
	C33.2,20.1,29.8,15.1,25.3,14.9z"/>
</svg>
