<?xml version="1.0" encoding="utf-8"?>
<!-- Generator: Adobe Illustrator 22.1.0, SVG Export Plug-In . SVG Version: 6.00 Build 0)  -->
<svg version="1.1" id="Слой_1" xmlns="http://www.w3.org/2000/svg" xmlns:xlink="http://www.w3.org/1999/xlink" x="0px" y="0px"
	 viewBox="0 0 50 61" style="enable-background:new 0 0 50 61;" xml:space="preserve">
<style type="text/css">
	.st0{fill:#D8F2DC;}
	.st1{fill:#C8B9FF;}
	.st2{fill:#67E17A;}
</style>
<path class="st0" d="M0.8,54.8L0.2,22.1l10-15.4l31.5,3.1l7.6,8.9v32.2l-16.1,8.9L0.8,54.8z"/>
<path class="st1" d="M41.7,5.3v4.5L10.2,6.7V1.6C10.2,0.7,11-0.1,12,0l28.4,3.7C41.1,3.8,41.7,4.5,41.7,5.3z"/>
<path class="st1" d="M3.9,35.9C4,34.3,4,33.2,3.8,31.7c-0.1-0.5,0.4-0.9,0.9-0.8c5.3,1.5,8.6,1.8,14.2,2.5l9.4,0.9
	c0.4,0,0.7,0.4,0.6,0.8c-0.3,1.2-0.4,2.1-0.7,3.5C28,40.1,28,41,28.1,42.2c0,0.4-0.3,0.8-0.7,0.8c-5.4-0.3-8.6-0.5-14.3-0.6
	C9.3,42,7.2,41.5,4,40.3c-0.3-0.1-0.4-0.4-0.4-0.6C3.7,38.4,3.7,37.5,3.9,35.9z"/>
<path class="st2" d="M42.1,9.1L10.3,5.9L10,7.5l30.2,3c-3.9,5.6-5.8,9.1-7.8,15c-13-0.3-20-1.5-32.1-4.1L0,22.9
	c12.1,2.6,19.1,3.8,32.2,4.1l0.2,34L50,51.3V18.4L42.1,9.1z M41.8,11.1l6.2,7.3l-13.6,6.3C36.2,19.6,38.1,16.3,41.8,11.1z
	 M48.5,50.4l-14.5,8l-0.2-31.7l14.7-6.8V50.4z"/>
</svg>
