<?xml version="1.0" encoding="utf-8"?>
<!-- Generator: Adobe Illustrator 22.1.0, SVG Export Plug-In . SVG Version: 6.00 Build 0)  -->
<svg version="1.1" id="Слой_1" xmlns="http://www.w3.org/2000/svg" xmlns:xlink="http://www.w3.org/1999/xlink" x="0px" y="0px"
	 viewBox="0 0 87 51.9" style="enable-background:new 0 0 87 51.9;" xml:space="preserve">
<style type="text/css">
	.st0{fill:#C8B9FF;}
	.st1{fill:#D8F2DC;}
	.st2{fill:#67E17A;}
</style>
<path class="st0" d="M9.1,3.2L11.6,0l11.5,6.1L20.5,10L9.1,3.2z"/>
<path class="st1" d="M16.6,0L0,47.3l19.4,4.7l8.9-33.1h50.8L87,1.3L16.6,0z"/>
<path class="st0" d="M30.5,5.4l0.9-3.9l13,0.6l-0.7,4.7L30.5,5.4z"/>
<path class="st0" d="M13.8,14L2.6,45.8h15.6l7.3-28.9L13.8,14z"/>
<path class="st2" d="M84.8,7c-0.4-0.5-1.2-0.9-2.7-0.8l0-1.6c1.8,0,3.1,0.5,3.9,1.3c0.8,0.9,1,1.9,1,2.8v0c0,0.7,0,2.3-0.5,3.7
	c-0.2,0.7-0.6,1.4-1.2,2c-0.6,0.6-1.4,0.9-2.5,0.9v-1.6c0.7,0,1.1-0.2,1.4-0.5c0.3-0.3,0.6-0.7,0.8-1.3c0.4-1.1,0.4-2.4,0.4-3.2
	C85.4,8.1,85.3,7.5,84.8,7z M28.8,17.5l36.3,0.8l0,1.6L42,19.3c-0.8,4.3-2.2,7.2-4.8,8.8c-2.5,1.5-5.9,1.7-10.4,1.2l-2.8,9l-1.5-0.5
	L28.8,17.5z M27.3,27.7c4.3,0.5,7.2,0.2,9.1-1c2-1.2,3.2-3.5,4-7.5L34,19.1l-0.7,6.6l-3.6-5.7L27.3,27.7z M30.9,19.1l1.6,0l-0.2,2.1
	L30.9,19.1z"/>
</svg>
