<?xml version="1.0" encoding="utf-8"?>
<!-- Generator: Adobe Illustrator 22.1.0, SVG Export Plug-In . SVG Version: 6.00 Build 0)  -->
<svg version="1.1" id="Слой_1" xmlns="http://www.w3.org/2000/svg" xmlns:xlink="http://www.w3.org/1999/xlink" x="0px" y="0px"
	 viewBox="0 0 95.1 49" style="enable-background:new 0 0 95.1 49;" xml:space="preserve">
<style type="text/css">
	.st0{fill:#D8F2DC;}
	.st1{fill:none;stroke:#67E17A;stroke-width:2;}
	.st2{fill:#C8B9FF;}
</style>
<path class="st0" d="M1,34.1C1.9,26.4,5.1,16,8.6,2.2c0.3-1.1,1.4-1.7,2.5-1.5l22.6,5.9c12.1,3.7,17.5,3,30,5.1
	c12.7,2.3,22,2.9,29.6,3.8c1.2,0.1,2,1.3,1.7,2.5l-8.1,28.3c-0.2,0.8-1,1.4-1.8,1.4c-6.3,0.3-10.6-0.1-15.7-0.1
	c-9.8,0-15.9-0.5-30-3c-15.3-3.6-23.5-5.6-36.8-8.6C1.6,36,0.9,35.1,1,34.1z"/>
<path class="st1" d="M9.2,0.2C5.4,15.1,1.9,26,1,34.1c-0.1,1,0.6,1.9,1.5,2.1c13.4,3,21.7,5,37,8.6c14.2,2.5,20.4,3,30.2,3
	c5.5,0,10,0.5,17.2,0"/>
<path class="st2" d="M18.9,15.9c-2.6-0.1-5.1,1.6-5.5,4.3c-0.4,2.7,1.4,4.2,4.3,4.3c2.9,0.2,4.1-0.9,4.9-3.4
	C23.4,18.7,21.5,16,18.9,15.9z"/>
<path class="st2" d="M71,26.9c-2.5-0.1-4.7,1.6-5,4.2c-0.4,2.7,1.1,3.4,3.9,3.6c2.8,0.2,3.7-0.9,4.5-3.4C75.1,28.9,73.4,27,71,26.9z
	"/>
<path class="st2" d="M45.3,13.6C37,13.3,29.6,19,28.5,28c-1.2,9,3.8,11.5,13,12.1c9.3,0.6,12.4-3,15.1-11.4
	C59.3,20.3,53.7,13.9,45.3,13.6z"/>
<path class="st1" d="M47.1,23.2c-0.9-0.6-1.6-1.1-2.3-1.3 M39.2,29.7c0.9,1.1,1.9,1.8,3,2.1 M44.7,21.8c-1.1-0.4-1.9-0.2-2.5,0.7
	c-1.1,1.5-1,2.7,1.3,4c2.2,1.4,2.8,2.7,1.9,4.4c-0.5,1-1.8,1.3-3.2,0.8 M44.7,21.8l0.4-2 M42.2,31.8l-0.4,2.1"/>
</svg>
