<?xml version="1.0" encoding="utf-8"?>
<!-- Generator: Adobe Illustrator 22.1.0, SVG Export Plug-In . SVG Version: 6.00 Build 0)  -->
<svg version="1.1" id="Слой_1" xmlns="http://www.w3.org/2000/svg" xmlns:xlink="http://www.w3.org/1999/xlink" x="0px" y="0px"
	 viewBox="0 0 270.9 401" style="enable-background:new 0 0 270.9 401;" xml:space="preserve">
<style type="text/css">
	.st0{fill:#C8B9FF;}
	.st1{fill:none;stroke:#18191B;}
</style>
<g>
	<g>
		<path class="st0" d="M236.7,194.2c-44.5-46.8-119.8-59-174.9-15.9c-55.1,43.1-51.3,101.9-3.5,155.2
			c47.9,53.3,88.7,54.5,148.8,22.7S281.2,241.1,236.7,194.2z"/>
		<path class="st1" d="M125.8,0.4c129.7,128.1,158,241.2-7.4,219.7c-48.6-6.3-41.2-128.5,15.1-103.3c96.4,43.2-40.8,81.7-19,140.8
			c32.8,88.9,74.7,137.2,118.6,98.3c57-50.4,44.1-93-7.9-105.3c-41.1-9.6-86.7,30.4-155.8,19.6c-94.5-14.7-82.8-95.4-18.3-99.8
			c61.6-4.2,88.9,2.6,127.9,28.5c35.6,23.6,45,48.3,1.2,81.6c-80.4,61.3-90.1,93.6-54.6,106.6c85.9,31.7,171,4.4,116.6-58
			c-54.9-63-85.9-99.6-143.7-93.7c-76.4,7.7-60,109.6,15.7,90.8c143.2-35.6,169.9-79.2,130.5-133.3c-57-78.3-98.3-54.9-165.4-1.8
			c-96.5,76.4-94.4,141,17.3,174.9c41.1,12.5,65.4,23,104.7,10.8c51.2-16,7.1-80.6-50.6-21.8c-20.1,20.5-11.2,36.9,16.1,43.1"/>
	</g>
</g>
</svg>
