<?xml version="1.0" encoding="utf-8"?>
<!-- Generator: Adobe Illustrator 22.1.0, SVG Export Plug-In . SVG Version: 6.00 Build 0)  -->
<svg version="1.1" id="Слой_1" xmlns="http://www.w3.org/2000/svg" xmlns:xlink="http://www.w3.org/1999/xlink" x="0px" y="0px"
	 viewBox="0 0 601 512" style="enable-background:new 0 0 601 512;" xml:space="preserve">
<style type="text/css">
	.st0{fill:#C8B9FF;}
	.st1{fill:none;stroke:#18191B;stroke-width:2;}
</style>
<path class="st0" d="M360.2,103.1c-108.3-3.9-212.7,69.8-228.1,186.1c-15.5,116.3,58,182.2,177.9,190
	c119.9,7.8,170.1-38.8,204.9-147.3C549.6,223.3,468.4,107,360.2,103.1z"/>
<path class="st1" d="M0,1c305.6,1.2,472.1,103.6,248.8,271.9c-65.6,49.4-200.1-105.7-103.1-141.5C311.9,70,192.6,277.1,288,322.3
	C431.6,390.2,538.3,399,545.4,301c9.2-127.1-56.2-163.2-132.9-116.8c-60.5,36.6-68.2,138.1-163.6,206.2
	c-130.5,93.2-211-17.1-138.9-98c68.8-77.2,109.6-101.1,186.6-115.9c70.3-13.5,110.4,5.1,97.1,96.3c-24.5,167.7,1.8,217.7,59.7,191.7
	c140-62.8,209.9-195.3,71.6-206.2c-139.7-11-219.7-18.5-282.1,56.2c-82.5,98.8,56.7,201.6,125.3,90.3
	c129.8-210.6,110.7-294.1,0-312.8c-160-27-182.2,49.5-200.3,191.8c-26,204.8,52.3,279.6,225.8,189.2c63.8-33.3,105.4-49.1,138-109.9
	c42.6-79.3-86.1-104.8-86.1,33.2c0,48.1,29.8,57.4,69.9,32.8"/>
</svg>
