<?xml version="1.0" encoding="utf-8"?>
<!-- Generator: Adobe Illustrator 22.1.0, SVG Export Plug-In . SVG Version: 6.00 Build 0)  -->
<svg version="1.1" id="Слой_1" xmlns="http://www.w3.org/2000/svg" xmlns:xlink="http://www.w3.org/1999/xlink" x="0px" y="0px"
	 viewBox="0 0 64.1 49.5" style="enable-background:new 0 0 64.1 49.5;" xml:space="preserve">
<style type="text/css">
	.st0{fill:#D8F2DC;}
	.st1{fill:none;stroke:#67E17A;stroke-width:0.9832;stroke-linejoin:round;}
	.st2{fill:#C8B9FF;}
	.st3{fill:#FFFFFF;}
	.st4{fill:none;stroke:#FFFFFF;stroke-width:0.9832;stroke-linecap:round;}
</style>
<path class="st0" d="M63.6,48.2l-52.7,1.3l-7.8-9.1L0.5,1.5l53.8-1.1c2.4,7.5,5.8,5.6,9,10.9L63.6,48.2z"/>
<path class="st1" d="M10.9,49.5L9.1,10.3 M9.1,10.3L0.5,1.5 M9.1,10.3l54.5,1c-6.4-1.7-10.1-2.5-13.3-6 M9.1,10.3l4.6-5 M0.5,1.5
	l13.7,3.2l-0.5,0.6 M0.5,1.5l2.6,35.2 M50.2,5.3c1.1-2.6,2.1-3.6,4.1-4.9 M50.2,5.3l-36.6,0"/>
<path class="st2" d="M37.4,16.1c-7.7-0.3-15.1,4.9-16.2,13.2c-1.1,8.2,4.1,12.9,12.6,13.4c8.5,0.5,12.1-2.7,14.5-10.4
	C50.8,24.6,45.1,16.4,37.4,16.1z"/>
<circle class="st3" cx="30" cy="27.7" r="1.1"/>
<circle class="st3" cx="39.3" cy="27.1" r="1.1"/>
<path class="st4" d="M32.7,29.9c1.6,1.1,2.5,0.9,4.1-0.3"/>
</svg>
