<?xml version="1.0" encoding="utf-8"?>
<!-- Generator: Adobe Illustrator 22.1.0, SVG Export Plug-In . SVG Version: 6.00 Build 0)  -->
<svg version="1.1" id="Слой_1" xmlns="http://www.w3.org/2000/svg" xmlns:xlink="http://www.w3.org/1999/xlink" x="0px" y="0px"
	 viewBox="0 0 18 18" style="enable-background:new 0 0 18 18;" xml:space="preserve">
<style type="text/css">
	.st0{fill:#9296A0;}
</style>
<path class="st0" d="M15.6,1.5h-2.9v-1c0-0.3-0.3-0.6-0.6-0.6c-0.3,0-0.6,0.3-0.6,0.6v1h-5v-1C6.5,0.3,6.3,0,5.9,0S5.4,0.3,5.4,0.6
	v1H2.4C1.1,1.5,0,2.6,0,3.9v3.6v8.2C0,17,1.1,18,2.4,18h13.1c1.3,0,2.4-1,2.4-2.4V7.5V3.9C18,2.6,16.9,1.5,15.6,1.5z M16.9,15.6
	c0,0.7-0.6,1.2-1.3,1.2H2.4c-0.7,0-1.3-0.6-1.3-1.2V8h15.7V15.6z M16.9,6.9H1.1v-3c0-0.7,0.6-1.2,1.3-1.2h2.9v1
	c0,0.3,0.3,0.6,0.6,0.6S6.5,4,6.5,3.6v-1h5v1c0,0.3,0.3,0.6,0.6,0.6c0.3,0,0.6-0.3,0.6-0.6v-1h2.9c0.7,0,1.3,0.6,1.3,1.2V6.9z"/>
</svg>
