<?xml version="1.0" encoding="utf-8"?>
<!-- Generator: Adobe Illustrator 22.1.0, SVG Export Plug-In . SVG Version: 6.00 Build 0)  -->
<svg version="1.1" id="Слой_1" xmlns="http://www.w3.org/2000/svg" xmlns:xlink="http://www.w3.org/1999/xlink" x="0px" y="0px"
	 viewBox="0 0 32 32" style="enable-background:new 0 0 32 32;" xml:space="preserve">
<style type="text/css">
	.st0{fill:#9296A0;}
</style>
<path class="st0" d="M6.1,6.1c5.5-5.5,14.3-5.5,19.7,0l0,0c5.5,5.5,5.4,14.3,0,19.7c-5.5,5.5-14.3,5.5-19.7,0l-0.7,0.7l0.7-0.7
	C0.7,20.4,0.7,11.6,6.1,6.1z M27.3,27.3c6.2-6.2,6.2-16.4,0-22.6s-16.4-6.2-22.6,0s-6.2,16.4,0,22.6S21.1,33.6,27.3,27.3z M17,7.8
	c0-0.6-0.5-1-1-1c-0.6,0-1,0.5-1,1v10.4c0,0.4,0.2,0.7,0.5,0.9l5.4,3.2c0.5,0.3,1.1,0.1,1.4-0.4s0.1-1.1-0.4-1.4L17,17.7V7.8z"/>
</svg>
