<?xml version="1.0" encoding="utf-8"?>
<!-- Generator: Adobe Illustrator 22.1.0, SVG Export Plug-In . SVG Version: 6.00 Build 0)  -->
<svg version="1.1" id="Слой_1" xmlns="http://www.w3.org/2000/svg" xmlns:xlink="http://www.w3.org/1999/xlink" x="0px" y="0px"
	 viewBox="0 0 12 12" style="enable-background:new 0 0 12 12;" xml:space="preserve">
<style type="text/css">
	.st0{fill:#fff;}
</style>
<path class="st0" d="M0.1,0.1C0.3,0,0.5,0,0.7,0.1l11.2,11.2c0.1,0.1,0.1,0.4,0,0.5c-0.1,0.1-0.4,0.1-0.5,0L0.1,0.7
	C0,0.5,0,0.3,0.1,0.1z"/>
<path class="st0" d="M11.9,0.1c-0.1-0.1-0.4-0.1-0.5,0L0.1,11.3c-0.1,0.1-0.1,0.4,0,0.5c0.1,0.1,0.4,0.1,0.5,0L11.9,0.7
	C12,0.5,12,0.3,11.9,0.1z"/>
</svg>
