<?xml version="1.0" encoding="utf-8"?>
<!-- Generator: Adobe Illustrator 22.1.0, SVG Export Plug-In . SVG Version: 6.00 Build 0)  -->
<svg version="1.1" id="Слой_1" xmlns="http://www.w3.org/2000/svg" xmlns:xlink="http://www.w3.org/1999/xlink" x="0px" y="0px"
	 viewBox="0 0 14 14" style="enable-background:new 0 0 14 14;" xml:space="preserve">
<style type="text/css">
	.st0{fill:#D3D5D9;}
</style>
<path class="st0" d="M7,14c3.9,0,7-3.1,7-7c0-3.9-3.1-7-7-7C3.1,0,0,3.1,0,7C0,10.9,3.1,14,7,14z M3.6,3.6c0.2-0.2,0.5-0.2,0.6,0
	L7,6.4l2.7-2.7c0.2-0.2,0.5-0.2,0.6,0c0.2,0.2,0.2,0.5,0,0.6L7.6,7l2.7,2.7c0.2,0.2,0.2,0.5,0,0.6c-0.2,0.2-0.5,0.2-0.6,0L7,7.6
	l-2.8,2.7c-0.2,0.2-0.5,0.2-0.6,0c-0.2-0.2-0.2-0.5,0-0.6L6.4,7L3.6,4.3C3.5,4.1,3.5,3.8,3.6,3.6z"/>
</svg>
