<?xml version="1.0" encoding="utf-8"?>
<!-- Generator: Adobe Illustrator 22.1.0, SVG Export Plug-In . SVG Version: 6.00 Build 0)  -->
<svg version="1.1" id="Слой_1" xmlns="http://www.w3.org/2000/svg" xmlns:xlink="http://www.w3.org/1999/xlink" x="0px" y="0px"
	 viewBox="0 0 10 12" style="enable-background:new 0 0 10 12;" xml:space="preserve">
<style type="text/css">
	.st0{fill:#18191B;}
</style>
<path class="st0" d="M2.6,0.9C2.6,0.4,3,0,3.4,0h5.6C9.6,0,10,0.4,10,0.9v8.2C10,9.6,9.6,10,9.1,10H8.8c-0.2,0-0.4-0.2-0.4-0.4
	c0-0.2,0.2-0.4,0.4-0.4h0.3c0.1,0,0.1-0.1,0.1-0.1V0.9c0-0.1-0.1-0.1-0.1-0.1H3.4c-0.1,0-0.1,0.1-0.1,0.1v0.3c0,0.2-0.2,0.4-0.4,0.4
	c-0.2,0-0.4-0.2-0.4-0.4V0.9z"/>
<path class="st0" d="M0,2.9C0,2.4,0.4,2,0.9,2H7c0.5,0,0.9,0.4,0.9,0.9v8.2C7.9,11.6,7.5,12,7,12H0.9C0.4,12,0,11.6,0,11.1V2.9z
	 M0.9,2.8c-0.1,0-0.1,0.1-0.1,0.1v8.2c0,0.1,0.1,0.1,0.1,0.1H7c0.1,0,0.1-0.1,0.1-0.1V2.9c0-0.1-0.1-0.1-0.1-0.1H0.9z"/>
</svg>
