<?xml version="1.0" encoding="utf-8"?>
<!-- Generator: Adobe Illustrator 22.1.0, SVG Export Plug-In . SVG Version: 6.00 Build 0)  -->
<svg version="1.1" id="Слой_1" xmlns="http://www.w3.org/2000/svg" xmlns:xlink="http://www.w3.org/1999/xlink" x="0px" y="0px"
	 viewBox="0 0 13.3 16" style="enable-background:new 0 0 13.3 16;" xml:space="preserve">
<style type="text/css">
	.st0{fill:#6250E5;}
</style>
<path class="st0" d="M0,2.2C0,0.9,1,0,2.3,0h6.3c0.6,0,1.2,0.2,1.6,0.6L12.7,3c0.4,0.4,0.7,1,0.7,1.5v9.3c0,1.2-1,2.2-2.3,2.2H2.3
	C1,16,0,15.1,0,13.8V2.2z M2.3,1C1.6,1,1,1.6,1,2.2v11.7C1,14.4,1.6,15,2.3,15h8.8c0.7,0,1.2-0.5,1.2-1.2V4.5c0-0.3-0.1-0.6-0.4-0.8
	L9.5,1.4C9.2,1.1,8.9,1,8.6,1H2.3z"/>
<path class="st0" d="M8,0c0.3,0,0.5,0.2,0.5,0.5v3.8c0,0.2,0.2,0.4,0.4,0.4h3.8c0.3,0,0.5,0.2,0.5,0.5c0,0.3-0.2,0.5-0.5,0.5H9
	c-0.8,0-1.5-0.7-1.5-1.5V0.5C7.5,0.2,7.8,0,8,0z"/>
<path class="st0" d="M2.1,8c0-0.3,0.2-0.5,0.5-0.5H8c0.3,0,0.5,0.2,0.5,0.5c0,0.3-0.2,0.5-0.5,0.5H2.6C2.3,8.5,2.1,8.3,2.1,8z"/>
<path class="st0" d="M2.1,10c0-0.3,0.2-0.5,0.5-0.5H8c0.3,0,0.5,0.2,0.5,0.5c0,0.3-0.2,0.5-0.5,0.5H2.6C2.3,10.6,2.1,10.3,2.1,10z"
	/>
<path class="st0" d="M2.1,12.1c0-0.3,0.2-0.5,0.5-0.5H6c0.3,0,0.5,0.2,0.5,0.5c0,0.3-0.2,0.5-0.5,0.5H2.6
	C2.3,12.6,2.1,12.4,2.1,12.1z"/>
</svg>
