<svg width="16" height="16" viewBox="0 0 16 16" fill="none" xmlns="http://www.w3.org/2000/svg">
<path fill-rule="evenodd" clip-rule="evenodd" d="M10.2251 3.37529L12.4789 1.12149C12.6128 0.987623 12.8287 0.988742 12.9612 1.12149L13.1055 1.26579L14.8785 3.03873C15.0124 3.17259 15.0112 3.38852 14.8785 3.52092L12.6246 5.77481L11.1092 4.25935L10.2251 3.37529ZM9.50297 4.09745L1.12129 12.4793L1.12031 12.4803C1.05745 12.5428 1.02128 12.6293 1.02128 12.7204V14.9787H3.27977C3.37089 14.9787 3.45742 14.9425 3.51995 14.8797L3.5209 14.8787L5.04166 13.3579L11.9025 6.49697L10.5314 5.12583L9.50297 4.09745ZM0.510638 16H3.27977C3.63983 16 3.98747 15.8575 4.24345 15.6005L4.244 15.5999L15.6002 4.24354C16.1335 3.71158 16.1329 2.84875 15.6006 2.31656L13.6833 0.399315C13.1513 -0.133524 12.2888 -0.132691 11.7567 0.399329L0.400108 11.7562L0.399607 11.7567C0.142517 12.0126 0 12.3603 0 12.7204V15.4894C0 15.7714 0.228621 16 0.510638 16Z" fill="#18191B"/>
</svg>
