<?xml version="1.0" encoding="utf-8"?>
<!-- Generator: Adobe Illustrator 22.1.0, SVG Export Plug-In . SVG Version: 6.00 Build 0)  -->
<svg version="1.1" id="Слой_1" xmlns="http://www.w3.org/2000/svg" xmlns:xlink="http://www.w3.org/1999/xlink" x="0px" y="0px"
	 viewBox="0 0 34 26" style="enable-background:new 0 0 34 26;" xml:space="preserve">
<style type="text/css">
	.st0{fill:#67E17A;}
</style>
<path class="st0" d="M27.9,2.1H3.4C1.5,2.1,0,3.6,0,5.5v17C0,24.5,1.5,26,3.4,26h25.1c1.9,0,3.4-1.5,3.4-3.5V5.7l-2,1.9v15
	c0,0.8-0.6,1.4-1.4,1.4H3.4c-0.8,0-1.4-0.6-1.4-1.4v-17c0-0.8,0.6-1.4,1.4-1.4h22.2L27.9,2.1z"/>
<path class="st0" d="M33.7,0.3c0.4,0.4,0.4,1.1-0.1,1.5l-17,15.7c-0.3,0.3-0.8,0.4-1.2,0.1l-8.8-5.5c-0.5-0.3-0.6-0.9-0.3-1.4
	c0.3-0.5,0.9-0.6,1.4-0.3l8.2,5.1L32.3,0.3C32.7-0.1,33.3-0.1,33.7,0.3z"/>
</svg>
