<?xml version="1.0" encoding="utf-8"?>
<!-- Generator: Adobe Illustrator 22.1.0, SVG Export Plug-In . SVG Version: 6.00 Build 0)  -->
<svg version="1.1" id="Слой_1" xmlns="http://www.w3.org/2000/svg" xmlns:xlink="http://www.w3.org/1999/xlink" x="0px" y="0px"
	 viewBox="0 0 9 6" style="enable-background:new 0 0 9 6;" xml:space="preserve">
<style type="text/css">
	.st0{fill:#18191B;}
</style>
<path class="st0" d="M0.7,0h7.5C8.7,0,9,0.3,9,0.7v0.1c0,0,0,0,0,0L4.5,3.3L0,0.8c0,0,0,0,0,0V0.7C0,0.3,0.3,0,0.7,0z"/>
<path class="st0" d="M0,1.7v3.7C0,5.7,0.3,6,0.7,6h7.5C8.7,6,9,5.7,9,5.3V1.7L4.7,4.1c-0.1,0.1-0.3,0.1-0.4,0L0,1.7z"/>
</svg>
