<?xml version="1.0" encoding="utf-8"?>
<!-- Generator: Adobe Illustrator 22.1.0, SVG Export Plug-In . SVG Version: 6.00 Build 0)  -->
<svg version="1.1" id="Слой_1" xmlns="http://www.w3.org/2000/svg" xmlns:xlink="http://www.w3.org/1999/xlink" x="0px" y="0px"
	 viewBox="0 0 14 10.5" style="enable-background:new 0 0 14 10.5;" xml:space="preserve">
<style type="text/css">
	.st0{fill:#18191B;}
</style>
<path class="st0" d="M0,1.5C0,0.7,0.7,0,1.5,0h11C13.3,0,14,0.7,14,1.5V9c0,0.8-0.7,1.5-1.5,1.5h-11C0.7,10.5,0,9.8,0,9V1.5z
	 M1.5,0.9c-0.3,0-0.6,0.3-0.6,0.6V9c0,0.3,0.3,0.6,0.6,0.6h11c0.3,0,0.6-0.3,0.6-0.6V1.5c0-0.3-0.3-0.6-0.6-0.6H1.5z"/>
<path class="st0" d="M1.9,3.2C2,3,2.3,2.9,2.5,3.1L7,5.9l4.5-2.9C11.7,2.9,12,3,12.1,3.2c0.1,0.2,0.1,0.5-0.1,0.6l-4.8,3
	c-0.1,0.1-0.3,0.1-0.5,0L2,3.8C1.8,3.7,1.7,3.4,1.9,3.2z"/>
</svg>
