<?xml version="1.0" encoding="utf-8"?>
<!-- Generator: Adobe Illustrator 22.1.0, SVG Export Plug-In . SVG Version: 6.00 Build 0)  -->
<svg version="1.1" id="Слой_1" xmlns="http://www.w3.org/2000/svg" xmlns:xlink="http://www.w3.org/1999/xlink" x="0px" y="0px"
	 viewBox="0 0 11.2 12" style="enable-background:new 0 0 11.2 12;" xml:space="preserve">
<style type="text/css">
	.st0{fill:#18191B;}
</style>
<path class="st0" d="M1.9,0.8c-0.6,0-1.1,0.5-1.1,1.1v8.2c0,0.6,0.5,1.1,1.1,1.1l2.9,0c0.2,0,0.4,0.2,0.4,0.4C5.2,11.8,5,12,4.8,12
	l-2.9,0c-1,0-1.9-0.8-1.9-1.9V1.9C0,0.8,0.8,0,1.9,0h3c0.2,0,0.4,0.2,0.4,0.4S5.1,0.8,4.9,0.8H1.9z M3.5,6c0-0.2,0.2-0.4,0.4-0.4h6
	L7.6,3.5c-0.2-0.1-0.2-0.4,0-0.5c0.1-0.2,0.4-0.2,0.5,0l3,2.8c0.1,0.1,0.1,0.2,0.1,0.3c0,0.1,0,0.2-0.1,0.2c0,0,0,0-0.1,0.1l-3,2.8
	C8,9.2,7.7,9.2,7.6,9.1c-0.1-0.2-0.1-0.4,0-0.5l2.3-2.1h-6C3.7,6.4,3.5,6.2,3.5,6z"/>
</svg>
