<?xml version="1.0" encoding="utf-8"?>
<!-- Generator: Adobe Illustrator 22.1.0, SVG Export Plug-In . SVG Version: 6.00 Build 0)  -->
<svg version="1.1" id="Слой_1" xmlns="http://www.w3.org/2000/svg" xmlns:xlink="http://www.w3.org/1999/xlink" x="0px" y="0px"
	 viewBox="0 0 15 16" style="enable-background:new 0 0 15 16;" xml:space="preserve">
<style type="text/css">
	.st0{fill:#9296A0;}
</style>
<path class="st0" d="M2.5,1C1.7,1,1,1.7,1,2.5v11C1,14.3,1.7,15,2.5,15l3.9,0c0.3,0,0.5,0.2,0.5,0.5c0,0.3-0.2,0.5-0.5,0.5l-3.9,0
	C1.1,16,0,14.9,0,13.5v-11C0,1.1,1.1,0,2.5,0h4C6.8,0,7,0.2,7,0.5S6.8,1,6.5,1H2.5z M4.7,8c0-0.3,0.2-0.5,0.5-0.5h8l-3.1-2.9
	c-0.2-0.2-0.2-0.5,0-0.7c0.2-0.2,0.5-0.2,0.7,0l4,3.7C14.9,7.7,15,7.9,15,8c0,0.1,0,0.2-0.1,0.3c0,0,0,0.1-0.1,0.1l-4,3.7
	c-0.2,0.2-0.5,0.2-0.7,0c-0.2-0.2-0.2-0.5,0-0.7l3.1-2.9h-8C4.9,8.5,4.7,8.3,4.7,8z"/>
</svg>
