<?xml version="1.0" encoding="utf-8"?>
<!-- Generator: Adobe Illustrator 22.1.0, SVG Export Plug-In . SVG Version: 6.00 Build 0)  -->
<svg version="1.1" id="Слой_1" xmlns="http://www.w3.org/2000/svg" xmlns:xlink="http://www.w3.org/1999/xlink" x="0px" y="0px"
	 viewBox="0 0 18 16.5" style="enable-background:new 0 0 18 16.5;" xml:space="preserve">
<style type="text/css">
	.st0{fill:#FD7272;}
</style>
<path class="st0" d="M17.7,12.7L11.2,1.3c-1-1.7-3.4-1.7-4.4,0L0.3,12.7c-1,1.7,0.3,3.8,2.2,3.8h12.9C17.4,16.5,18.6,14.4,17.7,12.7
	z M15.5,15.3H2.5c-1.1,0-1.7-1.2-1.2-2.1L7.8,1.9c0.5-0.9,1.9-0.9,2.4,0l6.5,11.4C17.2,14.2,16.5,15.3,15.5,15.3z"/>
<path class="st0" d="M9,4.6c0.3,0,0.6,0.3,0.6,0.6v5.4c0,0.3-0.3,0.6-0.6,0.6c-0.3,0-0.6-0.3-0.6-0.6V5.2C8.4,4.8,8.7,4.6,9,4.6z"/>
<circle class="st0" cx="9" cy="12.6" r="0.6"/>
</svg>
