<?xml version="1.0" encoding="utf-8"?>
<!-- Generator: Adobe Illustrator 22.1.0, SVG Export Plug-In . SVG Version: 6.00 Build 0)  -->
<svg version="1.1" id="Слой_1" xmlns="http://www.w3.org/2000/svg" xmlns:xlink="http://www.w3.org/1999/xlink" x="0px" y="0px"
	 viewBox="0 0 14 14" style="enable-background:new 0 0 14 14;" xml:space="preserve">
<style type="text/css">
	.st0{fill:#18191B;}
</style>
<path class="st0" d="M0,7c0-0.2,0.2-0.4,0.4-0.4h8.9c0.2,0,0.4,0.2,0.4,0.4S9.6,7.4,9.4,7.4H0.4C0.2,7.4,0,7.2,0,7z"/>
<path class="st0" d="M0.6,3.9C1.8,1.6,4.2,0,7,0c3.9,0,7,3.1,7,7c0,3.9-3.2,7-7,7c-2.8,0-5.2-1.6-6.3-3.9c-0.1-0.2,0-0.5,0.2-0.6
	c0.2-0.1,0.5,0,0.6,0.2c1,2,3.1,3.4,5.5,3.4c3.4,0,6.2-2.7,6.2-6.1c0-3.4-2.8-6.1-6.2-6.1c-2.4,0-4.5,1.4-5.5,3.4
	C1.3,4.5,1.1,4.6,0.8,4.5C0.6,4.4,0.5,4.1,0.6,3.9z"/>
<path class="st0" d="M6.7,4.3c0.2-0.2,0.5-0.2,0.6,0l2.4,2.4c0.2,0.2,0.2,0.5,0,0.6L7.3,9.7c-0.2,0.2-0.5,0.2-0.6,0s-0.2-0.5,0-0.6
	L8.8,7L6.7,4.9C6.5,4.8,6.5,4.5,6.7,4.3z"/>
</svg>
