<?xml version="1.0" encoding="utf-8"?>
<!-- Generator: Adobe Illustrator 22.1.0, SVG Export Plug-In . SVG Version: 6.00 Build 0)  -->
<svg version="1.1" id="Слой_1" xmlns="http://www.w3.org/2000/svg" xmlns:xlink="http://www.w3.org/1999/xlink" x="0px" y="0px"
	 viewBox="0 0 552.6 583.4" style="enable-background:new 0 0 552.6 583.4;" xml:space="preserve">
<style type="text/css">
	.st0{fill:none;stroke:url(#SVGID_1_);stroke-width:10;}
	.st1{fill:#FFFFFF;}
	.st2{fill:none;stroke:url(#SVGID_2_);stroke-width:10;}
</style>
<linearGradient id="SVGID_1_" gradientUnits="userSpaceOnUse" x1="522.6412" y1="78.0515" x2="204.3112" y2="409.2745" gradientTransform="matrix(1 0 0 -1 0 586)">
	<stop  offset="0" style="stop-color:#67E17A"/>
	<stop  offset="1" style="stop-color:#9E91FB"/>
</linearGradient>
<path class="st0" d="M0.6,114.2c358.4-42.1,547-41,547,126.1c0,182.6-479.7,260.4-479.7,128.4c0-93.1,434.9-63.6,434.9,115.8
	c0,47.2-18.7,69-67.1,94.6"/>
<path class="st1" d="M110.6,0h351c11,0,20,9,20,20v396c0,11-9,20-20,20h-351c-11,0-20-9-20-20V20C90.6,9,99.5,0,110.6,0z"/>
<linearGradient id="SVGID_2_" gradientUnits="userSpaceOnUse" x1="549.9349" y1="59.8108" x2="185.1889" y2="374.4518" gradientTransform="matrix(1 0 0 -1 0 586)">
	<stop  offset="0" style="stop-color:#67E17A"/>
	<stop  offset="1" style="stop-color:#9E91FB"/>
</linearGradient>
<path class="st2" d="M67.6,369.5c0,133,480,54.6,480-129.5"/>
</svg>
