<?xml version="1.0" encoding="utf-8"?>
<!-- Generator: Adobe Illustrator 22.1.0, SVG Export Plug-In . SVG Version: 6.00 Build 0)  -->
<svg version="1.1" id="Слой_1" xmlns="http://www.w3.org/2000/svg" xmlns:xlink="http://www.w3.org/1999/xlink" x="0px" y="0px"
	 viewBox="0 0 552.5 476.6" style="enable-background:new 0 0 552.5 476.6;" xml:space="preserve">
<style type="text/css">
	.st0{fill:none;stroke:url(#SVGID_1_);stroke-width:10;}
	.st1{fill:#FFFFFF;}
	.st2{fill:none;stroke:url(#SVGID_2_);stroke-width:10;}
</style>
<linearGradient id="SVGID_1_" gradientUnits="userSpaceOnUse" x1="466.9997" y1="-70.1823" x2="228.1896" y2="248.0836" gradientTransform="matrix(1 0 0 -1 0 388)">
	<stop  offset="0" style="stop-color:#67E17A"/>
	<stop  offset="1" style="stop-color:#9E91FB"/>
</linearGradient>
<path class="st0" d="M0.5,109.1c358.4-32.9,547-32,547,98.4c0,142.6-479.8,203.3-479.8,100.3c0-72.7,434.9-49.7,434.9,90.4
	c0,36.9-18.7,53.9-67.1,73.9"/>
<path class="st1" d="M110.5,0h351c11,0,20,9,20,20v324c0,11-9,20-20,20h-351c-11,0-20-9-20-20V20C90.5,9,99.4,0,110.5,0z"/>
<linearGradient id="SVGID_2_" gradientUnits="userSpaceOnUse" x1="499.0694" y1="-88.3167" x2="212.6604" y2="228.1843" gradientTransform="matrix(1 0 0 -1 0 388)">
	<stop  offset="0" style="stop-color:#67E17A"/>
	<stop  offset="1" style="stop-color:#9E91FB"/>
</linearGradient>
<path class="st2" d="M67.5,308.1c0,103.8,480,42.7,480-101.1"/>
</svg>
