<?xml version="1.0" encoding="utf-8"?>
<!-- Generator: Adobe Illustrator 22.1.0, SVG Export Plug-In . SVG Version: 6.00 Build 0)  -->
<svg version="1.1" id="Слой_1" xmlns="http://www.w3.org/2000/svg" xmlns:xlink="http://www.w3.org/1999/xlink" x="0px" y="0px"
	 viewBox="0 0 409 308" style="enable-background:new 0 0 409 308;" xml:space="preserve">
<style type="text/css">
	.st0{fill:none;stroke:url(#SVGID_1_);stroke-width:10;}
	.st1{fill:#FFFFFF;}
	.st2{fill:none;stroke:url(#SVGID_2_);stroke-width:10;}
</style>
<linearGradient id="SVGID_1_" gradientUnits="userSpaceOnUse" x1="332.757" y1="41.7473" x2="174.194" y2="270.4533" gradientTransform="matrix(1 0 0 -1 0 310)">
	<stop  offset="0" style="stop-color:#67E17A"/>
	<stop  offset="1" style="stop-color:#9E91FB"/>
</linearGradient>
<path class="st0" d="M1,22.3c264.1-22.4,403-21.8,403,67c0,97.1-353.5,138.4-353.5,68.2c0-49.5,320.4-20.2,320.4,75.1
	c0,31.1-20.1,54.4-49.5,70.7"/>
<path class="st1" d="M83,0h285c11,0,20,9,20,20v147c0,11-9,20-20,20H83c-11,0-20-9-20-20V20C63,9,72,0,83,0z"/>
<linearGradient id="SVGID_2_" gradientUnits="userSpaceOnUse" x1="309.5471" y1="20.5943" x2="161.9642" y2="313.0478" gradientTransform="matrix(1 0 0 -1 0 310)">
	<stop  offset="0" style="stop-color:#67E17A"/>
	<stop  offset="1" style="stop-color:#9E91FB"/>
</linearGradient>
<path class="st2" d="M50.5,157.6c0,70.1,353.5,28.8,353.5-68.2"/>
</svg>
