<?xml version="1.0" encoding="utf-8"?>
<!-- Generator: Adobe Illustrator 22.1.0, SVG Export Plug-In . SVG Version: 6.00 Build 0)  -->
<svg version="1.1" id="Слой_1" xmlns="http://www.w3.org/2000/svg" xmlns:xlink="http://www.w3.org/1999/xlink" x="0px" y="0px"
	 viewBox="0 0 32.3 345" style="enable-background:new 0 0 32.3 345;" xml:space="preserve">
<style type="text/css">
	.st0{fill:none;stroke:url(#SVGID_1_);stroke-width:6;stroke-linecap:round;}
	.st1{fill:#6250E5;}
	.st2{fill:#67E17A;}
	.st3{fill:#9E91FB;}
</style>
<linearGradient id="SVGID_1_" gradientUnits="userSpaceOnUse" x1="3" y1="-37" x2="3" y2="292" gradientTransform="matrix(1 0 0 -1 0 300)">
	<stop  offset="0" style="stop-color:#67E17A"/>
	<stop  offset="0.4231" style="stop-color:#9E91FB"/>
	<stop  offset="0.6783" style="stop-color:#9E91FB"/>
	<stop  offset="1" style="stop-color:#6250E5"/>
</linearGradient>
<path class="st0" d="M3,8.5V337"/>
<path class="st1" d="M23.7,16C19.2,16,9,8,9,8s10.2-8,14.7-8S32,3.6,32,8S28.3,16,23.7,16z"/>
<path class="st2" d="M23.7,345c-4.6,0-14.7-8.5-14.7-8.5s10.2-8.5,14.7-8.5s8.3,3.8,8.3,8.5S28.3,345,23.7,345z"/>
<path class="st3" d="M22,135.3c0.8-0.5,1.9-0.4,2.5,0.2l7.1,7.1c0.8,0.8,0.8,2,0,2.8l-7.1,7.1c-0.7,0.7-1.7,0.8-2.5,0.2l-13.1-8.8
	L22,135.3z"/>
</svg>
