<?xml version="1.0" encoding="utf-8"?>
<!-- Generator: Adobe Illustrator 22.1.0, SVG Export Plug-In . SVG Version: 6.00 Build 0)  -->
<svg version="1.1" id="Слой_1" xmlns="http://www.w3.org/2000/svg" xmlns:xlink="http://www.w3.org/1999/xlink" x="0px" y="0px"
	 viewBox="0 0 1124 298.6" style="enable-background:new 0 0 1124 298.6;" xml:space="preserve">
<style type="text/css">
	.st0{fill:none;stroke:url(#SVGID_1_);stroke-width:10;stroke-linecap:round;}
	.st1{fill:#6250E5;}
	.st2{fill:#67E17A;}
	.st3{fill:#9E91FB;}
</style>
<linearGradient id="SVGID_1_" gradientUnits="userSpaceOnUse" x1="971.3818" y1="552.2021" x2="240.2348" y2="259.9991" gradientTransform="matrix(1 0 0 -1 0 496)">
	<stop  offset="0" style="stop-color:#67E17A"/>
	<stop  offset="0.4231" style="stop-color:#9E91FB"/>
	<stop  offset="0.6783" style="stop-color:#9E91FB"/>
	<stop  offset="1" style="stop-color:#6250E5"/>
</linearGradient>
<path class="st0" d="M1113,121c-199.1,4.4-72.6,162.2-201.8,77.7C760.9,100.4,919,268.5,664,290s-335.3-56.9-294-152.8
	C402.9,60.7,158,49,12,49"/>
<path class="st1" d="M27,13.7C27,21.2,13.5,38,13.5,38S0,21.2,0,13.7C0,6.1,6,0,13.5,0C21,0,27,6.1,27,13.7z"/>
<path class="st2" d="M1124,82.7c0,7.5-13.5,24.3-13.5,24.3S1097,90.2,1097,82.7c0-7.5,6-13.7,13.5-13.7S1124,75.1,1124,82.7z"/>
<path class="st3" d="M480.6,258.7c-2.1-3.2-1.7-7.4,1-10.1l5.9-5.9c3.1-3.1,8.2-3.1,11.3,0l5.9,5.9c2.7,2.7,3.1,6.9,1,10.1
	l-12.6,18.6L480.6,258.7z"/>
</svg>
