<?xml version="1.0" encoding="utf-8"?>
<!-- Generator: Adobe Illustrator 22.1.0, SVG Export Plug-In . SVG Version: 6.00 Build 0)  -->
<svg version="1.1" id="Слой_1" xmlns="http://www.w3.org/2000/svg" xmlns:xlink="http://www.w3.org/1999/xlink" x="0px" y="0px"
	 viewBox="0 0 12.8 14" style="enable-background:new 0 0 12.8 14;" xml:space="preserve">
<style type="text/css">
	.st0{fill:#9296A0;}
	.st1{fill:#18191B;}
</style>
<path class="st0" d="M6.4,6.6c0.2,0,0.4,0.2,0.4,0.4v6.6c0,0.2-0.2,0.4-0.4,0.4C6.2,14,6,13.8,6,13.6V7C6,6.8,6.2,6.6,6.4,6.6z"/>
<path class="st1" d="M11.8,2.8L7.4,0.3c-0.6-0.4-1.4-0.4-2,0L1,2.8C0.7,3,0.4,3.2,0.3,3.5c0,0,0,0,0,0c0,0,0,0,0,0
	C0.1,3.8,0,4.1,0,4.5v5c0,0.7,0.4,1.4,1,1.7l4.4,2.5c0.6,0.4,1.4,0.4,2,0l4.4-2.5c0.6-0.4,1-1,1-1.7v-5c0-0.3-0.1-0.7-0.3-1
	c0,0,0,0,0,0c0,0,0,0,0,0C12.4,3.2,12.1,3,11.8,2.8z M0.9,4.4L0.4,4.1C0.2,4,0.1,3.7,0.3,3.5c0,0,0,0,0,0c0.1-0.2,0.4-0.3,0.6-0.1
	l0.5,0.3C1.1,3.8,0.9,4.1,0.9,4.4z M0.9,4.4l5.3,3c0.1,0.1,0.3,0.1,0.4,0l5.3-3c0,0,0,0.1,0,0.1v5c0,0.4-0.2,0.7-0.6,0.9L7,13
	c-0.3,0.2-0.8,0.2-1.1,0l-4.4-2.5c-0.3-0.2-0.5-0.6-0.5-0.9v-5C0.9,4.4,0.9,4.4,0.9,4.4z M1.3,3.6C1.4,3.6,1.4,3.6,1.3,3.6L5.9,1
	C6.2,0.8,6.6,0.8,7,1l4.4,2.5c0,0,0.1,0,0.1,0.1L6.4,6.5L1.3,3.6z"/>
<path class="st1" d="M0.4,4.1l0.5,0.3c0-0.3,0.2-0.6,0.4-0.8L0.9,3.3C0.7,3.2,0.4,3.3,0.3,3.5c0,0,0,0,0,0C0.1,3.7,0.2,4,0.4,4.1z"
	/>
</svg>
