<?xml version="1.0" encoding="utf-8"?>
<!-- Generator: Adobe Illustrator 22.1.0, SVG Export Plug-In . SVG Version: 6.00 Build 0)  -->
<svg version="1.1" id="Слой_1" xmlns="http://www.w3.org/2000/svg" xmlns:xlink="http://www.w3.org/1999/xlink" x="0px" y="0px"
	 viewBox="0 0 9 9" style="enable-background:new 0 0 9 9;" xml:space="preserve">
<style type="text/css">
	.st0{fill:#18191B;}
</style>
<path class="st0" d="M8.1,8.7C8.5,8.4,8.7,8,9,7.6c0-0.1,0-0.3,0-0.4c0-0.1-0.1-0.3-0.2-0.4C8.4,6.5,8,6.2,7.6,6
	C7.4,5.9,7.2,5.9,7,5.9C6.9,5.9,6.7,6,6.6,6.1C6.4,6.2,6.3,6.4,6.2,6.5C6.1,6.6,6.1,6.6,6,6.6c-0.1,0-0.2,0-0.2,0
	C5.2,6.3,4.7,6,4.2,5.6c-0.5-0.5-1-1-1.5-1.6C2.6,3.7,2.4,3.5,2.4,3.3c0-0.1,0-0.2,0-0.2c0-0.1,0.1-0.1,0.1-0.2
	c0.1-0.1,0.3-0.3,0.4-0.4C3,2.3,3.1,2.1,3.1,2c0-0.2,0-0.3-0.1-0.5C2.9,1,2.5,0.5,2.1,0.2C1.9,0.1,1.8,0,1.6,0S1.2,0.1,1,0.2
	C0.9,0.3,0.4,0.7,0.3,0.8C0.2,0.9,0.1,1,0.1,1.2C0,1.3,0,1.5,0,1.6C0,2,0.1,2.4,0.2,2.8C0.5,3.7,1,4.5,1.5,5.2
	C2.5,6.4,3.7,7.4,5,8.2C5.6,8.6,6.2,8.8,6.9,9C7.1,9,7.3,9,7.5,9C7.7,8.9,8,8.8,8.1,8.7z"/>
</svg>
