<?xml version="1.0" encoding="utf-8"?>
<!-- Generator: Adobe Illustrator 22.1.0, SVG Export Plug-In . SVG Version: 6.00 Build 0)  -->
<svg version="1.1" id="Слой_1" xmlns="http://www.w3.org/2000/svg" xmlns:xlink="http://www.w3.org/1999/xlink" x="0px" y="0px"
	 viewBox="0 0 9.9 14" style="enable-background:new 0 0 9.9 14;" xml:space="preserve">
<style type="text/css">
	.st0{fill:#18191B;}
</style>
<path class="st0" d="M2,0.9c-0.6,0-1,0.5-1,1v10.2c0,0.6,0.5,1,1,1h6c0.6,0,1-0.5,1-1V1.9c0-0.6-0.5-1-1-1H2z M0,1.9
	C0,0.8,0.9,0,2,0h6c1.1,0,2,0.8,2,1.9v10.2c0,1-0.9,1.9-2,1.9H2c-1.1,0-2-0.8-2-1.9V1.9z"/>
<path class="st0" d="M5,10.5c-0.4,0-0.8,0.3-0.8,0.8C4.2,11.7,4.5,12,5,12c0.4,0,0.8-0.3,0.8-0.8C5.7,10.9,5.4,10.5,5,10.5z"/>
<path class="st0" d="M3.6,2.6c0-0.2,0.2-0.4,0.5-0.4h1.9c0.3,0,0.5,0.2,0.5,0.4c0,0.2-0.2,0.4-0.5,0.4H4C3.8,3.1,3.6,2.9,3.6,2.6z"
	/>
</svg>
