<?xml version="1.0" encoding="utf-8"?>
<!-- Generator: Adobe Illustrator 22.1.0, SVG Export Plug-In . SVG Version: 6.00 Build 0)  -->
<svg version="1.1" id="Слой_1" xmlns="http://www.w3.org/2000/svg" xmlns:xlink="http://www.w3.org/1999/xlink" x="0px" y="0px"
	 viewBox="0 0 12 12" style="enable-background:new 0 0 12 12;" xml:space="preserve">
<style type="text/css">
	.st0{fill:#9296A0;}
</style>
<path class="st0" d="M6,0.8C3.1,0.8,0.8,3.1,0.8,6s2.3,5.2,5.2,5.2s5.2-2.3,5.2-5.2S8.9,0.8,6,0.8z M0,6c0-3.3,2.7-6,6-6s6,2.7,6,6
	s-2.7,6-6,6S0,9.3,0,6z"/>
<path class="st0" d="M4,4.8C4,3.7,5,3,6,3s2,0.7,2,1.8c0,0.8-0.6,1.2-1,1.4l0,0C6.6,6.4,6.4,6.6,6.4,6.9v0.2c0,0.2-0.2,0.4-0.4,0.4
	S5.6,7.3,5.6,7.1V6.9c0-0.8,0.6-1.2,1-1.4C7,5.3,7.2,5.1,7.2,4.8c0-0.5-0.5-1-1.2-1s-1.2,0.5-1.2,1c0,0.2-0.2,0.4-0.4,0.4S4,5,4,4.8
	z"/>
<path class="st0" d="M6,8c0.3,0,0.5,0.2,0.5,0.4h-1C5.5,8.2,5.7,8,6,8z M5.5,9.1V8.4h1V9L5.5,9.1z M5.5,9.1c0,0.2,0.2,0.4,0.5,0.4
	S6.5,9.3,6.5,9L5.5,9.1z"/>
</svg>
