<?xml version="1.0" encoding="utf-8"?>
<!-- Generator: Adobe Illustrator 22.1.0, SVG Export Plug-In . SVG Version: 6.00 Build 0)  -->
<svg version="1.1" id="Слой_1" xmlns="http://www.w3.org/2000/svg" xmlns:xlink="http://www.w3.org/1999/xlink" x="0px" y="0px"
	 viewBox="0 0 26.5 26.5" style="enable-background:new 0 0 26.5 26.5;" xml:space="preserve">
<style type="text/css">
	.st0{fill:none;stroke:#6250E5;stroke-width:2;stroke-linecap:round;stroke-linejoin:round;}
</style>
<path class="st0" d="M23.9,7.1c1.3,2.3,1.9,5,1.5,7.7s-1.6,5.2-3.5,7.1c-1.9,1.9-4.4,3.1-7.1,3.5c-2.7,0.4-5.4-0.2-7.7-1.5
	c-2.3-1.3-4.2-3.4-5.2-5.9c-1-2.5-1.2-5.3-0.5-7.9c0.7-2.6,2.2-4.9,4.4-6.5S10.6,1,13.2,1"/>
<path class="st0" d="M13.2,1v10.5"/>
<path class="st0" d="M15,13.2c0,0.5-0.2,0.9-0.5,1.2c-0.3,0.3-0.8,0.5-1.2,0.5c-0.2,0-0.5,0-0.7-0.1c-0.2-0.1-0.4-0.2-0.6-0.4
	c-0.2-0.2-0.3-0.4-0.4-0.6c-0.1-0.2-0.1-0.4-0.1-0.7c0-0.5,0.2-0.9,0.5-1.2c0.3-0.3,0.8-0.5,1.2-0.5s0.9,0.2,1.2,0.5
	C14.8,12.3,15,12.8,15,13.2L15,13.2z"/>
<path class="st0" d="M19.3,9.7c0.8,1.3,1.1,2.9,0.9,4.4c-0.2,1.5-0.9,2.9-2,4c-1.1,1.1-2.5,1.8-4,2s-3.1-0.1-4.4-0.9
	c-1.3-0.8-2.4-2-3-3.4s-0.7-3-0.3-4.5C6.9,9.9,7.8,8.6,9,7.7c1.2-0.9,2.7-1.4,4.3-1.4"/>
</svg>
