<?xml version="1.0" encoding="utf-8"?>
<!-- Generator: Adobe Illustrator 22.1.0, SVG Export Plug-In . SVG Version: 6.00 Build 0)  -->
<svg version="1.1" id="Слой_1" xmlns="http://www.w3.org/2000/svg" xmlns:xlink="http://www.w3.org/1999/xlink" x="0px" y="0px"
	 viewBox="0 0 12.2 14" style="enable-background:new 0 0 12.2 14;" xml:space="preserve">
<style type="text/css">
	.st0{fill:#18191B;}
</style>
<path class="st0" d="M4.9,0.2C5.5,0,6.2-0.1,6.8,0.1C7.5,0.2,8.1,0.5,8.5,1C9,1.4,9.3,2,9.4,2.6c0.1,0.6,0,1.3-0.2,1.9
	C9,5.1,8.5,5.6,8,5.9C7.4,6.2,6.8,6.4,6.1,6.4c-0.9,0-1.7-0.3-2.3-0.9c-0.6-0.6-1-1.4-1-2.3c0-0.6,0.2-1.3,0.6-1.8
	C3.8,0.9,4.3,0.5,4.9,0.2z M6.7,0.9c-0.5-0.1-1-0.1-1.4,0.1C4.8,1.2,4.4,1.5,4.2,1.9C3.9,2.3,3.7,2.7,3.7,3.2l0,0
	c0,0.6,0.2,1.2,0.7,1.6c0.4,0.4,1.1,0.7,1.7,0.7l0,0c0.5,0,1-0.1,1.4-0.4c0.4-0.3,0.7-0.6,0.9-1c0.2-0.4,0.2-0.9,0.2-1.3
	C8.5,2.3,8.2,1.9,7.9,1.6C7.6,1.3,7.1,1,6.7,0.9z M6.1,7.2c0.8,0,1.7,0.1,2.5,0.4c1,0.3,1.9,0.9,2.6,1.7c0.7,0.7,1,1.6,1,2.6v0
	c0,0.1,0,0.2,0,0.3c0,0.2,0,0.5,0,0.8l0,0l0,0c0,0.3-0.2,0.6-0.4,0.8c-0.2,0.2-0.5,0.3-0.8,0.3l0,0l-9.6,0l0,0
	c-0.3,0-0.6-0.1-0.8-0.3c-0.2-0.2-0.4-0.5-0.4-0.8l0,0l0,0c0-0.3,0-0.5,0-0.8c0-0.1,0-0.2,0-0.3l0,0c0-1,0.4-1.9,1-2.6
	c0.7-0.8,1.6-1.4,2.6-1.7C4.4,7.3,5.3,7.2,6.1,7.2z M6.1,8.1c-0.7,0-1.5,0.1-2.2,0.3l0,0C3,8.7,2.3,9.2,1.7,9.8l0,0l0,0
	c-0.5,0.5-0.8,1.3-0.8,2c0,0.1,0,0.2,0,0.3c0,0.2,0,0.4,0,0.6C0.9,12.9,1,12.9,1,13c0.1,0.1,0.2,0.1,0.3,0.1l9.6,0
	c0.1,0,0.2,0,0.3-0.1c0.1-0.1,0.1-0.1,0.1-0.2c0-0.2,0-0.4,0-0.6c0-0.1,0-0.2,0-0.3c0-0.7-0.3-1.4-0.8-2l0,0l0,0
	C10,9.2,9.2,8.7,8.3,8.4l0,0C7.6,8.2,6.9,8.1,6.1,8.1L6.1,8.1L6.1,8.1z"/>
</svg>
