<svg width="14" height="14" viewBox="0 0 14 14" fill="none" xmlns="http://www.w3.org/2000/svg">
<path d="M0 0H14V14H0V0Z" fill="#57A863"/>
<path d="M0 0H14V9.33242H0V0Z" fill="#ED5565"/>
<path d="M0 0H14V4.66758H0V0Z" fill="#3BAFDA"/>
<path d="M6.52969 9.10002C7.68949 9.10002 8.62969 8.15982 8.62969 7.00002C8.62969 5.84023 7.68949 4.90002 6.52969 4.90002C5.36989 4.90002 4.42969 5.84023 4.42969 7.00002C4.42969 8.15982 5.36989 9.10002 6.52969 9.10002Z" fill="white"/>
<path d="M6.99707 8.75C7.96357 8.75 8.74707 7.9665 8.74707 7C8.74707 6.0335 7.96357 5.25 6.99707 5.25C6.03057 5.25 5.24707 6.0335 5.24707 7C5.24707 7.9665 6.03057 8.75 6.99707 8.75Z" fill="#ED5565"/>
<path d="M8.86484 5.83252L9.08633 6.46143L9.68789 6.17432L9.40351 6.77588L10.0324 7.0001L9.40351 7.22432L9.68789 7.82588L9.08633 7.53877L8.86484 8.16768L8.64062 7.53877L8.03906 7.82588L8.32617 7.22432L7.69727 7.0001L8.32617 6.77588L8.03906 6.17432L8.64062 6.46143L8.86484 5.83252Z" fill="white"/>
</svg>
