<svg width="18" height="18" viewBox="0 0 18 18" fill="none" xmlns="http://www.w3.org/2000/svg">
<path fill-rule="evenodd" clip-rule="evenodd" d="M-0.000976562 0H35.9936V11.9547H-0.000976562V0Z" fill="#ED5565"/>
<path fill-rule="evenodd" clip-rule="evenodd" d="M-0.000976562 11.9546H35.9936V17.999H-0.000976562V11.9546Z" fill="#57A863"/>
<path fill-rule="evenodd" clip-rule="evenodd" d="M-0.000976562 0H3.9827V17.9955H-0.000976562V0Z" fill="white"/>
<path fill-rule="evenodd" clip-rule="evenodd" d="M0.187686 0.304762H0.379977V0.609525H0.187686V0.304762ZM0.757301 0.304762H1.32692V0.609525H0.76093L0.757301 0.304762ZM0.945964 0H1.13825V0.304762H0.942336L0.945964 0ZM1.89653 0H2.0852V0.304762H1.89653V0ZM2.65844 0.304762H3.22443V0.609525H2.65481L2.65844 0.304762ZM2.84347 0H3.03214V0.304762H2.84347V0ZM0.568639 0.609525H0.949592V0.914288H0.568639V0.609525ZM1.13825 0.609525H1.51921V0.914288H1.13825V0.609525ZM2.46615 0.609525H2.8471V0.914288H2.46615V0.609525ZM3.03576 0.609525H3.40946V0.914288H3.03939L3.03576 0.609525ZM0.379977 0.914288H0.757301V1.21905H0.379977V0.914288ZM1.32692 0.914288H1.70787V1.21905H1.32692V0.914288ZM2.27749 0.914288H2.65481V1.21905H2.27749V0.914288ZM3.22443 0.914288H3.60538V1.21905H3.22443V0.914288ZM3.60538 0.304762H3.79404V0.609525H3.60538V0.304762ZM0.187686 1.21905H0.568639V1.52381H0.187686V1.21905ZM1.51558 1.21905H1.89653V1.52381H1.51558V1.21905ZM3.41672 1.21905H3.79404V1.52381H3.41672V1.21905ZM0.379977 2.14059H0.757301V2.44536H0.379977V2.14059ZM0.568639 2.44536H0.949592V2.75012H0.568639V2.44536ZM1.33055 2.14059H1.70424V2.44536H1.32692L1.33055 2.14059ZM1.13825 2.44536H1.51558V2.75012H1.13825V2.44536ZM0.757301 2.75012H1.32692V3.04763H0.76093L0.757301 2.75012ZM0.945964 3.04763H1.13825V3.35602H0.942336L0.945964 3.04763ZM2.27749 2.13334H2.65481V2.44173H2.27749V2.13334ZM2.46615 2.44173H2.8471V2.74649H2.46615V2.44173ZM3.22805 2.13697H3.60538V2.44173H3.22443L3.22805 2.13697ZM3.03576 2.44173H3.40946V2.74649H3.03939L3.03576 2.44173ZM2.65481 2.74649H3.22805V3.04763H2.65481V2.74649ZM2.8471 3.04763H3.03576V3.35602H2.8471V3.04763ZM1.89653 2.74649H2.0852V3.04763H1.89653V2.74649ZM-0.000976562 2.74649H0.187686V3.04763H-0.000976562V2.74649ZM3.79404 2.74649H3.9827V3.04763H3.79404V2.74649ZM0.945964 4.2703H1.13825V4.57507H0.942336L0.945964 4.2703ZM0.757301 4.57507H1.32692V4.87983H0.76093L0.757301 4.57507ZM0.568639 4.87983H1.51921V5.18459H0.568639V4.87983ZM2.8471 4.2703H3.03576V4.57507H2.8471V4.2703Z" fill="#ED5565"/>
<path fill-rule="evenodd" clip-rule="evenodd" d="M2.65481 4.57504H3.22805V4.87981H2.65481V4.57504ZM2.46615 4.87981H3.41309V5.18457H2.46615V4.87981ZM2.65481 6.40362H3.60538V6.71201H2.65481V6.40362ZM2.27749 5.1882H3.60538V5.49296H2.27749V5.1882ZM0.379977 5.1882H1.70424V5.49296H0.379977V5.1882ZM0.568639 6.71201H1.13825V7.0204H0.568639V6.71201ZM0.379977 6.41087H1.32692V6.71564H0.379977V6.41087ZM3.03576 5.79772H3.9827V6.10611H3.03939L3.03576 5.79772ZM2.8471 6.71201H3.41672V7.01677H2.8471V6.71201ZM0.757301 7.01677H0.949592V7.32153H0.757301V7.01677ZM3.03576 7.01677H3.22443V7.32153H3.03576V7.01677ZM-0.000976562 5.79409H0.949592V6.10248H-0.000976562V5.79409ZM1.70424 6.40725H2.27749V6.71201H1.70424V6.40725ZM1.89653 6.71201H2.0852V7.01677H1.89653V6.71201ZM1.32692 5.79409H2.65481V6.10248H1.32692V5.79409ZM2.08882 1.22266H2.46615V1.52379H2.0852L2.08882 1.22266ZM1.70424 1.52379H2.27386V1.82855H1.70424V1.52379ZM1.51195 1.82855H1.8929V2.13332H1.51558L1.51195 1.82855ZM2.08157 1.82855H2.46615V2.13332H2.0852L2.08157 1.82855ZM-0.000976562 1.52379H0.379977V1.82855H-0.000976562V1.52379ZM0.187686 1.82855H0.568639V2.13332H0.187686V1.82855ZM3.60538 1.52379H3.9827V1.82855H3.60538V1.52379ZM3.40946 1.82855H3.79041V2.13332H3.41672L3.40946 1.82855ZM-0.000976562 4.57504H0.187686V4.87981H-0.000976562V4.57504ZM3.79404 4.57504H3.9827V4.87981H3.79404V4.57504ZM1.70787 7.01677H2.27749V7.32153H1.70424L1.70787 7.01677ZM1.51558 7.32153H1.89653V7.6263H1.51558V7.32153ZM2.0852 7.32153H2.46615V7.6263H2.0852V7.32153ZM1.32692 7.6263H1.70787V7.93106H1.32692V7.6263ZM2.27749 7.6263H2.65481V7.93106H2.27749V7.6263ZM1.13825 7.93106H1.51921V8.23582H1.13825V7.93106ZM2.46615 7.93106H2.8471V8.23582H2.46615V7.93106ZM0.945964 8.23582H1.32692V8.54058H0.945964V8.23582ZM2.65481 8.23582H3.03576V8.54058H2.65481V8.23582ZM0.568639 8.54058H1.13825V8.84535H0.568639V8.54058ZM2.8471 8.54058H3.41672V8.84535H2.8471V8.54058ZM3.22443 8.23582H3.60538V8.54058H3.22443V8.23582ZM3.41672 7.93106H3.79404V8.23582H3.41672V7.93106ZM3.60538 7.6263H3.9827V7.93106H3.60538V7.6263ZM0.376348 8.23582H0.76093V8.54058H0.379977L0.376348 8.23582ZM0.187686 7.93106H0.568639V8.23582H0.187686V7.93106Z" fill="#ED5565"/>
<path fill-rule="evenodd" clip-rule="evenodd" d="M-0.000976562 7.62647H0.379977V7.93123H-0.000976562V7.62647ZM0.76093 8.84552H0.949592V9.15028H0.757301L0.76093 8.84552ZM3.03576 8.84552H3.22443V9.15028H3.03576V8.84552ZM1.89653 7.93123H2.0852V8.23599H1.89653V7.93123ZM1.32692 8.84552H1.51558V9.15028H1.32692V8.84552ZM2.46615 8.84552H2.65481V9.15028H2.46615V8.84552ZM1.89653 8.84552H2.0852V9.15028H1.89653V8.84552ZM-0.000976562 8.84552H0.187686V9.15028H-0.000976562V8.84552ZM3.79404 8.84552H3.9827V9.15028H3.79404V8.84552ZM1.89653 4.57521H2.0852V4.87998H1.89653V4.57521ZM0.949592 1.52759H1.13825V1.82872H0.949592V1.52759ZM2.8471 1.52759H3.03576V1.82872H2.8471V1.52759ZM1.70424 3.6573H2.27386V3.96206H1.70424V3.6573ZM1.32692 3.96569H1.89653V4.27045H1.32692V3.96569Z" fill="#ED5565"/>
<path fill-rule="evenodd" clip-rule="evenodd" d="M1.516 4.27032H1.70829V4.57508H1.516V4.27032ZM1.13867 3.66079H1.51963V3.96556H1.13867V3.66079ZM1.32733 3.35603H1.89695V3.66079H1.32733V3.35603ZM1.516 3.05127H1.70829V3.35603H1.516V3.05127ZM2.08561 3.35603H2.65523V3.66079H2.08561V3.35603ZM2.2779 3.05127H2.46657V3.35603H2.2779V3.05127ZM2.46657 3.66079H2.84752V3.96556H2.46657V3.66079ZM2.08561 3.96556H2.65523V4.27032H2.08561V3.96556ZM2.2779 4.27032H2.46657V4.57508H2.2779V4.27032ZM3.03618 3.66079H3.41713V3.96556H3.03618V3.66079ZM3.22484 3.35603H3.79446V3.66079H3.22847L3.22484 3.35603ZM3.6058 3.66079H3.98312V3.96556H3.6058V3.66079Z" fill="#ED5565"/>
<path fill-rule="evenodd" clip-rule="evenodd" d="M3.22805 3.96556H3.79404V4.27032H3.22805V3.96556ZM3.41672 4.27032H3.60538V4.57508H3.41672V4.27032ZM3.41672 3.05127H3.60538V3.35603H3.41672V3.05127ZM-0.000976562 3.66079H0.379977V3.96556H-0.000976562V3.66079ZM0.187686 3.35603H0.76093V3.66079H0.187686V3.35603ZM0.568639 3.66079H0.949592V3.96556H0.568639V3.66079Z" fill="#ED5565"/>
<path fill-rule="evenodd" clip-rule="evenodd" d="M0.187686 3.96556H0.76093V4.27032H0.187686V3.96556ZM0.379977 4.27032H0.568639V4.57508H0.379977V4.27032ZM0.379977 3.05127H0.568639V3.35603H0.379977V3.05127ZM0.187686 5.48937H0.949592V5.79413H0.187686V5.48937ZM1.13825 5.48937H1.90016V5.79413H1.13825V5.48937ZM2.0852 5.48937H2.8471V5.79413H2.0852V5.48937ZM3.03576 5.48937H3.79767V5.79413H3.03576V5.48937ZM1.51558 6.09889H2.46615V6.40728H1.51558V6.09889ZM0.187686 6.09889H1.13825V6.40728H0.187686V6.09889ZM2.8471 6.09889H3.79404V6.40728H2.8471V6.09889ZM3.79404 7.32157H3.9827V7.62633H3.79404V7.32157ZM-0.000976562 7.32157H0.187686V7.62633H-0.000976562V7.32157ZM0.187686 17.6944H0.379977V17.386H0.187686V17.6944ZM0.757301 17.6944H1.32692V17.386H0.76093L0.757301 17.6944ZM0.945964 17.9955H1.13825V17.6944H0.942336L0.945964 17.9955ZM1.89653 17.9955H2.0852V17.6944H1.89653V17.9955ZM2.65844 17.6944H3.22443V17.3896H2.65481L2.65844 17.6944ZM2.8471 17.9955H3.03576V17.6944H2.8471V17.9955ZM0.568639 17.386H0.949592V17.0812H0.568639V17.386ZM1.13825 17.386H1.51921V17.0812H1.13825V17.386ZM2.46615 17.386H2.8471V17.0812H2.46615V17.386ZM3.03576 17.386H3.40946V17.0812H3.03939L3.03576 17.386ZM1.33055 17.0812H1.70424V16.7765H1.32692L1.33055 17.0812ZM2.27386 17.0812H2.65481V16.7765H2.27749L2.27386 17.0812ZM3.22443 17.0812H3.60538V16.7765H3.22443V17.0812ZM3.60538 17.6944H3.79404V17.386H3.60538V17.6944ZM0.187686 16.7765H0.568639V16.4717H0.187686V16.7765ZM1.51558 16.7765H1.89653V16.4717H1.51558V16.7765ZM3.41672 16.7765H3.79404V16.4717H3.41672V16.7765ZM0.379977 15.8622H0.757301V15.5574H0.379977V15.8622ZM0.568639 15.5574H0.949592V15.2527H0.568639V15.5574ZM1.33055 15.8622H1.70424V15.5574H1.32692L1.33055 15.8622ZM1.13825 15.5574H1.51558V15.2527H1.13825V15.5574ZM0.757301 15.2527H1.32692V14.9479H0.76093L0.757301 15.2527ZM0.945964 14.9479H1.13825V14.6431H0.942336L0.945964 14.9479ZM2.27749 15.8622H2.65481V15.5574H2.27749V15.8622ZM2.46615 15.5574H2.8471V15.2527H2.46615V15.5574ZM3.22805 15.8622H3.60538V15.5574H3.22443L3.22805 15.8622ZM3.03576 15.5574H3.40946V15.2527H3.03939L3.03576 15.5574ZM2.65481 15.2527H3.22805V14.9479H2.65481V15.2527ZM2.8471 14.9479H3.03576V14.6431H2.8471V14.9479ZM1.89653 15.2527H2.0852V14.9479H1.89653V15.2527ZM-0.000976562 15.2527H0.187686V14.9479H-0.000976562V15.2527ZM3.79404 15.2527H3.9827V14.9479H3.79404V15.2527ZM0.949592 13.7288H1.13825V13.4204H0.949592V13.7288Z" fill="#ED5565"/>
<path fill-rule="evenodd" clip-rule="evenodd" d="M0.76093 13.4242H1.32692V13.1158H0.76093V13.4242ZM0.568639 13.1158H1.51921V12.811H0.568639V13.1158ZM2.8471 13.7253H3.03576V13.4242H2.8471V13.7253ZM2.65481 13.4242H3.22805V13.1158H2.65481V13.4242ZM2.46615 13.1158H3.41309V12.811H2.46615V13.1158ZM2.65481 11.592H3.60538V11.2872H2.65481V11.592ZM2.27749 12.811H3.60538V12.5063H2.27749V12.811ZM0.379977 12.811H1.70424V12.5063H0.379977V12.811ZM0.568639 11.2872H1.13825V10.9825H0.568639V11.2872ZM0.379977 11.592H1.32692V11.2872H0.379977V11.592ZM3.03576 12.2015H3.9827V11.9004H3.03939L3.03576 12.2015ZM2.8471 11.2872H3.41672V10.9825H2.8471V11.2872ZM-0.000976562 12.2015H0.949592V11.9004H-0.000976562V12.2015ZM1.70424 11.592H2.27749V11.2872H1.70424V11.592ZM1.89653 11.2872H2.0852V10.9825H1.89653V11.2872ZM1.32692 12.2015H2.65481V11.9004H1.32692V12.2015ZM2.08882 16.7766H2.46615V16.4718H2.0852L2.08882 16.7766ZM1.70424 16.4718H2.27386V16.167H1.70424V16.4718ZM1.51195 16.167H1.8929V15.8623H1.51558L1.51195 16.167ZM2.08157 16.167H2.46615V15.8623H2.0852L2.08157 16.167ZM-0.000976562 16.4718H0.379977V16.167H-0.000976562V16.4718ZM0.187686 16.167H0.568639V15.8623H0.187686V16.167ZM3.60538 16.4718H3.9827V16.167H3.60538V16.4718ZM3.41309 16.167H3.79404V15.8623H3.41672L3.41309 16.167ZM-0.000976562 13.4242H0.187686V13.1194H-0.000976562V13.4242ZM3.79404 13.4242H3.9827V13.1194H3.79404V13.4242ZM1.51558 10.6813H1.89653V10.3766H1.51558V10.6813ZM2.0852 10.6813H2.46615V10.3766H2.0852V10.6813ZM1.32692 10.3766H1.70787V10.0718H1.32692V10.3766ZM2.27749 10.3766H2.65481V10.0718H2.27749V10.3766ZM1.13825 10.0682H1.51558V9.75978H1.13825V10.0682ZM2.46615 10.0682H2.8471V9.75978H2.46615V10.0682ZM0.945964 9.75978H1.32692V9.45865H0.945964V9.75978ZM2.65481 9.75978H3.03576V9.45865H2.65481V9.75978ZM0.568639 9.45865H1.13825V9.15026H0.568639V9.45865ZM2.8471 9.45865H3.41672V9.15026H2.8471V9.45865ZM3.22443 9.76341H3.60538V9.45502H3.22443V9.76341ZM3.41672 10.0645H3.79404V9.76341H3.41672V10.0645ZM3.60538 10.3729H3.9827V10.0682H3.60538V10.3729ZM0.376348 9.76341H0.76093V9.45502H0.379977L0.376348 9.76341ZM0.187686 10.0645H0.568639V9.76341H0.187686V10.0645ZM-0.000976562 10.3766H0.379977V10.0718H-0.000976562V10.3766ZM0.76093 9.15388H0.949592V8.84912H0.757301L0.76093 9.15388ZM1.89653 10.0718H2.0852V9.75978H1.89653V10.0718ZM1.89653 13.4278H2.0852V13.1194H1.89653V13.4278ZM0.949592 16.4754H1.13825V16.1707H0.949592V16.4754ZM2.8471 16.4754H3.03576V16.1707H2.8471V16.4754ZM1.70424 14.3385H2.27386V14.0337H1.70424V14.3385ZM1.32329 14.0337H1.8929V13.7289H1.32692L1.32329 14.0337ZM1.51195 13.7253H1.70424V13.4242H1.51195V13.7253ZM1.13463 14.3385H1.51195V14.0337H1.13825L1.13463 14.3385ZM1.32692 14.6432H1.89653V14.3385H1.32692V14.6432ZM1.51558 14.948H1.70787V14.6432H1.51558V14.948ZM2.0852 14.6432H2.65481V14.3385H2.0852V14.6432ZM2.27749 14.948H2.46615V14.6432H2.27749V14.948ZM2.46615 14.3385H2.8471V14.0337H2.46615V14.3385ZM2.0852 14.0337H2.65481V13.7289H2.0852V14.0337ZM2.27749 13.7253H2.46615V13.4242H2.27749V13.7253ZM3.03576 14.3385H3.40946V14.0337H3.03939L3.03576 14.3385ZM3.22443 14.6432H3.79404V14.3385H3.22805L3.22443 14.6432ZM3.60538 14.3385H3.9827V14.0337H3.60538V14.3385ZM3.22443 14.0337H3.79404V13.7289H3.22805L3.22443 14.0337ZM3.41672 13.7253H3.60538V13.4242H3.41672V13.7253ZM3.41672 14.948H3.60538V14.6432H3.41672V14.948ZM-0.000976562 14.3385H0.379977V14.0337H-0.000976562V14.3385Z" fill="#ED5565"/>
<path fill-rule="evenodd" clip-rule="evenodd" d="M0.187686 14.643H0.76093V14.3383H0.187686V14.643ZM0.568639 14.3383H0.949592V14.0335H0.568639V14.3383ZM0.187686 14.0335H0.76093V13.7287H0.187686V14.0335ZM0.379977 13.7251H0.568639V13.424H0.379977V13.7251ZM0.379977 14.9478H0.568639V14.643H0.379977V14.9478ZM0.187686 12.5061H0.949592V12.2013H0.187686V12.5061ZM1.13825 12.5061H1.90016V12.2013H1.13825V12.5061ZM2.0852 12.5061H2.8471V12.2013H2.0852V12.5061ZM3.03576 12.5061H3.79767V12.2013H3.03576V12.5061ZM1.51558 11.9002H2.46615V11.5954H1.51558V11.9002ZM0.187686 11.9002H1.13825V11.5954H0.187686V11.9002ZM2.8471 11.9002H3.79404V11.5954H2.8471V11.9002ZM3.79404 10.6811H3.9827V10.3764H3.79404V10.6811ZM-0.000976562 10.6775H0.187686V10.3727H-0.000976562V10.6775ZM1.70424 9.15368H1.89653V9.45482H1.70787L1.70424 9.15368ZM2.0852 9.15368H2.27749V9.45482H2.0852V9.15368ZM2.0852 8.54053H2.27749V8.84529H2.0852V8.54053ZM1.70787 8.54053H1.89653V8.84529H1.70787V8.54053ZM0.379977 16.7764H0.757301V17.0811H0.379977V16.7764ZM3.03576 10.9823H3.22443V10.6775H3.03576V10.9823ZM0.757301 10.9823H0.945964V10.6775H0.76093L0.757301 10.9823ZM1.70787 10.6775H2.27749V10.9823H1.70424L1.70787 10.6775Z" fill="#ED5565"/>
</svg>
