<svg width="14" height="14" viewBox="0 0 14 14" fill="none" xmlns="http://www.w3.org/2000/svg">
<path fill-rule="evenodd" clip-rule="evenodd" d="M-3.5 0H17.5205V14.0013H-3.5V0Z" fill="#ED5565"/>
<path fill-rule="evenodd" clip-rule="evenodd" d="M2.88325 7.14032C3.25657 6.68627 4.03012 7.13023 4.66242 6.80399C3.91241 6.84435 3.50545 6.44412 2.91352 6.50129C3.52563 6.12461 4.04694 6.62237 4.73305 6.42057C3.82496 6.34658 3.86532 5.93963 3.04132 5.88245C3.77452 5.56966 4.13439 6.20533 4.85413 6.0607C4.00658 5.86563 3.89559 5.36787 3.26666 5.26024C4.18484 5.12235 4.1243 5.66384 5.02566 5.7311C4.11084 5.34096 4.353 4.99791 3.58617 4.70194C4.44381 4.68176 4.38663 5.2737 5.251 5.42841C4.51107 4.95755 4.60188 4.52705 3.98977 4.19072C4.71623 4.20417 4.78686 4.94746 5.52678 5.17616C4.86758 4.65485 5.03911 4.2109 4.47071 3.7434C5.19046 3.91157 5.0862 4.55395 5.83621 4.96091C5.28127 4.34543 5.49315 3.90148 5.00884 3.39362C5.70168 3.61896 5.43934 4.22772 6.15908 4.8062C5.7454 4.12682 6.00101 3.69295 5.59405 3.11783C6.2398 3.45416 5.92702 4.07301 6.52568 4.69185C6.24316 3.99565 6.52568 3.56179 6.23644 2.94294C6.78802 3.35663 6.46178 4.01919 6.90573 4.65485C6.74429 3.7804 7.12098 3.63578 7.00326 2.87231C7.42031 3.3869 6.95282 3.90148 7.27233 4.65485C7.23869 3.79722 7.69274 3.59542 7.61202 2.90595C8.02907 3.52479 7.37995 4.06292 7.65238 4.72548C7.71964 3.9082 8.25777 3.69968 8.26786 3.06402C8.5941 3.64587 7.88108 4.06628 7.9988 4.83983C8.23086 3.98556 8.80262 3.8813 8.87325 3.30618C9.06832 3.97883 8.28804 4.29498 8.33512 5.04163C8.56719 4.28489 9.28021 4.19408 9.42819 3.63578C9.51564 4.34879 8.81271 4.4766 8.61764 5.26361C8.9876 4.62458 9.63335 4.56741 9.92259 4.05955C9.89905 4.76584 9.10532 4.85665 8.86316 5.51922C9.32057 4.95755 9.89232 5.05508 10.3497 4.55732C10.3026 5.19634 9.49546 5.15935 9.06496 5.81855C9.56272 5.36114 10.3094 5.49904 10.6894 5.10553C10.6692 5.6672 9.68044 5.62684 9.20958 6.12797C9.78806 5.81518 10.5179 6.00017 10.9417 5.7042C10.8609 6.1986 9.81833 6.08761 9.31384 6.47102C10.0033 6.27932 10.5347 6.57192 11.0964 6.36004C10.824 6.84099 9.87551 6.53829 9.37102 6.85107C9.96968 6.75018 10.6053 7.11005 11.1502 6.9957C10.9719 7.40938 9.93268 6.96879 9.36765 7.23113C10.0403 7.22104 10.4775 7.65154 11.0964 7.62127C10.76 7.99795 9.84524 7.48001 9.31384 7.56745C9.96295 7.70199 10.4574 8.24011 10.9518 8.26702C10.5482 8.57644 9.79142 7.87015 9.17594 7.96096C9.80824 8.12912 10.3396 8.84886 10.7029 8.86568C10.3127 9.13474 9.53918 8.2502 9.01114 8.28047C9.65017 8.57307 9.94614 9.30627 10.3699 9.41053C9.8486 9.5787 9.33402 8.61343 8.77235 8.5798C9.42146 8.99012 9.45846 9.61569 9.95959 9.89148C9.43492 10.026 9.05823 8.93295 8.50329 8.84214C9.03805 9.23228 9.11541 10.0697 9.47191 10.3354C8.93379 10.3623 8.74208 9.22219 8.19387 9.05739C8.66473 9.45089 8.55037 10.3018 8.91361 10.6684C8.35867 10.554 8.4293 9.55852 7.84745 9.22219C8.2645 9.75359 8.04925 10.5036 8.32503 10.9274C7.78018 10.7088 8.01898 9.81749 7.49767 9.313C7.78018 9.87803 7.47749 10.5339 7.69946 11.0787C7.20506 10.8366 7.53803 9.78386 7.15798 9.36345C7.33287 10.0159 7.00999 10.554 7.14116 11.1359C6.6333 10.5473 7.21852 9.95875 6.77793 9.35336C6.89228 10.0462 6.41133 10.5238 6.48868 11.1023C6.08509 10.6314 6.70393 9.87466 6.39115 9.28273C6.45841 9.95875 5.83621 10.5507 5.87993 10.9778C5.55369 10.433 6.24316 9.78722 6.05818 9.16501C6.01782 9.81076 5.39225 10.1605 5.27454 10.7458C5.06265 10.1 5.8093 9.63251 5.7454 8.99685C5.53015 9.60224 4.92476 9.8444 4.70951 10.4296C4.53462 9.78386 5.41916 9.4408 5.4427 8.76142C5.17028 9.40044 4.44381 9.53834 4.20502 10.026C4.11421 9.38699 5.12992 9.09775 5.16691 8.48899C4.84068 9.0742 4.04694 9.09438 3.77115 9.56188C3.73079 8.92286 4.80032 8.84214 4.96848 8.17284C4.64224 8.67061 3.77115 8.61007 3.41128 9.01366C3.46846 8.41836 4.62206 8.38137 4.80704 7.84997C4.37654 8.26365 3.57945 8.09213 3.1254 8.42173C3.37765 7.83652 4.46399 7.96096 4.70614 7.53718C4.22856 7.78943 3.37765 7.54727 2.95724 7.79616C3.34065 7.24458 4.18484 7.57418 4.66242 7.19077C3.8855 7.30512 3.41801 6.9957 2.87988 7.14032H2.88325Z" fill="#FFCE54"/>
<path fill-rule="evenodd" clip-rule="evenodd" d="M9.73134 7.00231C9.74417 7.36655 9.68351 7.72965 9.55297 8.06994C9.42243 8.41023 9.22469 8.72075 8.97155 8.98296C8.7184 9.24518 8.41504 9.45373 8.07955 9.59616C7.74406 9.7386 7.38333 9.812 7.01886 9.812C6.65439 9.812 6.29365 9.7386 5.95816 9.59616C5.62267 9.45373 5.31931 9.24518 5.06617 8.98296C4.81302 8.72075 4.61528 8.41023 4.48474 8.06994C4.35421 7.72965 4.29354 7.36655 4.30637 7.00231C4.33112 6.29944 4.62774 5.63363 5.13373 5.14515C5.63971 4.65667 6.31555 4.38367 7.01886 4.38367C7.72216 4.38367 8.398 4.65667 8.90399 5.14515C9.40997 5.63363 9.70659 6.29944 9.73134 7.00231Z" fill="#FFCE54"/>
<path fill-rule="evenodd" clip-rule="evenodd" d="M9.38134 7.00912C9.38134 7.31873 9.32035 7.62531 9.20187 7.91136C9.08339 8.1974 8.90972 8.45731 8.69079 8.67624C8.47186 8.89517 8.21196 9.06883 7.92591 9.18732C7.63987 9.3058 7.33329 9.36678 7.02368 9.36678C6.71406 9.36678 6.40748 9.3058 6.12144 9.18732C5.83539 9.06883 5.57549 8.89517 5.35656 8.67624C5.13763 8.45731 4.96397 8.1974 4.84548 7.91136C4.727 7.62531 4.66602 7.31873 4.66602 7.00912C4.66602 6.38339 4.91459 5.78328 5.35705 5.34082C5.79951 4.89835 6.39962 4.64978 7.02536 4.64978C7.65109 4.64978 8.2512 4.89835 8.69366 5.34082C9.13613 5.78328 9.3847 6.38339 9.3847 7.00912H9.38134Z" fill="#ED5565"/>
<path fill-rule="evenodd" clip-rule="evenodd" d="M9.05471 7.01246C9.05471 7.54989 8.84121 8.06531 8.46119 8.44533C8.08117 8.82534 7.56576 9.03884 7.02833 9.03884C6.4909 9.03884 5.97548 8.82534 5.59546 8.44533C5.21545 8.06531 5.00195 7.54989 5.00195 7.01246C5.00195 6.47503 5.21545 5.95962 5.59546 5.5796C5.97548 5.19958 6.4909 4.98608 7.02833 4.98608C7.56576 4.98608 8.08117 5.19958 8.46119 5.5796C8.84121 5.95962 9.05471 6.47503 9.05471 7.01246Z" fill="#FFCE54"/>
<path fill-rule="evenodd" clip-rule="evenodd" d="M5.30498 5.68388C5.86665 5.67379 6.56285 5.72424 7.02361 6.0942C7.51717 5.78526 8.09855 5.64701 8.67835 5.7007L8.98104 6.25227C8.54382 6.20855 8.11668 6.26909 7.61219 6.47425C7.91883 6.70048 8.16532 6.99844 8.33009 7.34204C8.49485 7.68564 8.57285 8.06439 8.55727 8.44513C8.48328 8.53931 8.36893 8.6402 8.29493 8.73101C8.40256 7.95409 7.99224 7.08301 7.39358 6.6256C7.87789 7.32852 8.16713 7.95746 8.08641 8.82855L7.81062 9.00007C7.93843 8.23325 7.76017 7.33525 7.19178 6.81394C7.40893 7.13497 7.56052 7.49573 7.63786 7.87551C7.7152 8.25529 7.71676 8.6466 7.64246 9.02698C7.55501 9.05389 7.42048 9.12788 7.32967 9.15479C7.43696 8.79568 7.46606 8.41775 7.41501 8.04645C7.36396 7.67516 7.23394 7.31911 7.03371 7.00229C6.83724 7.31697 6.71013 7.66993 6.66083 8.03762C6.61154 8.40531 6.64119 8.77928 6.74783 9.13461L6.45858 9.05052C6.30387 8.22652 6.51912 7.30162 6.89245 6.81731C6.5124 7.03928 6.15253 7.98436 6.25342 8.94963L5.99782 8.83191C5.87337 8.11217 6.19961 7.17381 6.67047 6.63233C6.13907 6.96865 5.70521 7.78929 5.78257 8.67384C5.70185 8.60321 5.62449 8.56621 5.54377 8.49558C5.4496 7.72203 5.89692 6.94511 6.41822 6.47761C5.98741 6.29515 5.51933 6.2179 5.05273 6.25227C5.13682 6.07402 5.2209 5.8655 5.30498 5.68724V5.68388Z" fill="#ED5565"/>
</svg>
