<svg width="18" height="18" viewBox="0 0 18 18" fill="none" xmlns="http://www.w3.org/2000/svg">
<path fill-rule="evenodd" clip-rule="evenodd" d="M-0.000976562 0H17.999V18H-0.000976562V0Z" fill="#3BAFDA"/>
<path fill-rule="evenodd" clip-rule="evenodd" d="M1.51016 17.5078C1.6332 17.6238 1.59102 17.8242 1.93203 17.7996C2.44883 17.7996 2.46289 17.4832 2.46289 17.2617C2.46289 17.0402 1.68945 16.7343 1.6543 16.4074C1.61914 16.0804 1.83359 15.9925 2.01289 15.9925C2.18867 15.9925 2.31523 16.098 2.31523 16.1859C2.31523 16.2738 2.22734 16.3019 2.1043 16.3019C1.98125 16.3019 2.15703 16.2386 2.04805 16.1859C1.93906 16.1332 1.87227 16.2632 1.87227 16.3441C1.87227 16.4214 2.13945 16.446 2.31523 16.3898C2.35039 16.5656 2.37148 16.5761 2.11836 16.8749C2.29766 16.7589 2.31523 16.7343 2.51211 16.7976C2.31523 16.6289 2.46289 16.2843 2.46992 16.1964C2.47695 16.1085 2.43477 16.0031 2.35391 15.9503C2.20977 15.8238 1.89687 15.8167 1.71055 15.9011C1.43633 16.0207 1.42227 16.3792 1.49609 16.4988L2.25195 17.2722C2.30469 17.3636 2.32227 17.6167 2.00234 17.6308C1.66133 17.6554 1.54531 17.1949 1.48555 17.0402C1.40469 17.2089 1.3168 17.673 0.975781 17.6449C0.655859 17.6343 0.592578 17.3812 0.645312 17.2898L1.42227 16.4988C1.49258 16.3792 1.48203 16.0207 1.21133 15.9011C1.02148 15.8167 0.708594 15.8238 0.564453 15.9539C0.487109 16.0031 0.441406 16.1085 0.448437 16.1964C0.455469 16.2843 0.603125 16.6289 0.40625 16.7941C0.603125 16.7308 0.617188 16.7589 0.796484 16.8749C0.550391 16.5761 0.564453 16.5621 0.603125 16.3863C0.778906 16.446 1.04961 16.4214 1.04961 16.3441C1.04961 16.2632 0.979297 16.1332 0.870312 16.1859C0.764844 16.2386 0.940625 16.3019 0.817578 16.3019C0.691016 16.3019 0.603125 16.2773 0.603125 16.1859C0.603125 16.0945 0.726172 15.9925 0.905469 15.9925C1.08477 15.9925 1.29922 16.0839 1.26055 16.4074C1.22539 16.7308 0.434375 17.0859 0.434375 17.3074C0.434375 17.5289 0.490625 17.7996 1.00742 17.7996C1.34844 17.8242 1.38711 17.6238 1.51016 17.5042V17.5078Z" fill="#F6D660"/>
<path fill-rule="evenodd" clip-rule="evenodd" d="M1.46816 12.8673C1.59121 12.7477 1.68965 12.3926 2.03066 12.4208C2.54746 12.4208 2.74434 12.7055 2.74434 12.927C2.74434 13.1485 1.68965 14.9555 1.65449 15.2825C1.61934 15.6059 1.83379 15.6973 2.01309 15.6973C2.18887 15.6973 2.31543 15.5919 2.31543 15.5005C2.31543 15.409 2.22754 15.3844 2.10449 15.3844C1.98145 15.3844 2.15371 15.4477 2.04824 15.5005C1.94277 15.5532 1.87246 15.4231 1.87246 15.3458C1.87246 15.2649 2.13613 15.2403 2.31543 15.3001C2.35059 15.1243 2.36816 15.1102 2.11855 14.8114C2.29785 14.9274 2.31543 14.952 2.5123 14.8887C2.31543 15.0575 2.46309 15.402 2.47012 15.4899C2.47715 15.5778 2.43496 15.6833 2.35059 15.736C2.20996 15.8661 1.89355 15.8696 1.71074 15.7852C1.43652 15.6657 1.42246 15.3071 1.49629 15.1876L2.5123 12.9903C2.56504 12.8989 2.42441 12.6036 2.10098 12.5895C1.76348 12.5614 1.64395 12.9165 1.5877 13.0712L2.04824 13.036C2.04824 13.036 2.06582 13.1063 2.04824 13.1555C1.80918 13.1696 1.5877 13.2153 1.5877 13.2153L1.57012 13.4473H1.79863L1.77754 13.5528C1.77754 13.5528 1.5877 13.5387 1.5666 13.5528C1.54902 13.5669 1.53145 13.7883 1.53145 13.7883C1.53145 13.7883 1.49629 13.7989 1.46113 13.7989C1.41895 13.7989 1.38379 13.7883 1.38379 13.7883C1.38379 13.7883 1.36621 13.5669 1.34863 13.5528C1.33105 13.5387 1.1377 13.5528 1.1377 13.5528L1.12012 13.4473H1.34863L1.33105 13.2153C1.33105 13.2153 1.10605 13.1696 0.866992 13.1555C0.849414 13.1098 0.866992 13.0395 0.866992 13.0395L1.33105 13.0747C1.27129 12.9165 1.15527 12.5614 0.814258 12.5895C0.494336 12.6001 0.350195 12.8989 0.40293 12.9903L1.42246 15.1876C1.49277 15.3071 1.47871 15.6657 1.20801 15.7852C1.02168 15.8696 0.708789 15.8661 0.564648 15.736C0.483789 15.6833 0.441602 15.5778 0.448633 15.4899C0.455664 15.402 0.599805 15.0575 0.40293 14.8923C0.599805 14.9555 0.617383 14.9274 0.79668 14.8114C0.550586 15.1102 0.564648 15.1243 0.599805 15.3001C0.779102 15.2403 1.04629 15.2649 1.04629 15.3458C1.04629 15.4231 0.975976 15.5532 0.870508 15.5005C0.761523 15.4477 0.94082 15.3844 0.814258 15.3844C0.691211 15.3844 0.60332 15.409 0.60332 15.5005C0.60332 15.5919 0.726367 15.6973 0.905664 15.6973C1.08496 15.6973 1.2959 15.6059 1.26074 15.279C1.22559 14.9555 0.170898 13.1485 0.170898 12.9235C0.170898 12.7055 0.367773 12.4208 0.88457 12.4208C1.22559 12.3926 1.34512 12.7477 1.46816 12.8673Z" fill="#F6D660"/>
<path fill-rule="evenodd" clip-rule="evenodd" d="M1.46777 11.9706C1.59082 12.0901 1.68926 12.4452 2.03027 12.4171C2.54707 12.4171 2.74395 12.1323 2.74395 11.9108C2.74395 11.6894 1.68926 9.88233 1.6541 9.55537C1.61895 9.23194 1.8334 9.14053 2.0127 9.14053C2.18848 9.14053 2.31504 9.246 2.31504 9.33741C2.31504 9.42881 2.22715 9.45342 2.1041 9.45342C1.98105 9.45342 2.15684 9.39014 2.04785 9.33741C1.93887 9.28467 1.87207 9.41475 1.87207 9.49209C1.87207 9.57295 2.13574 9.59756 2.31504 9.5378C2.3502 9.71358 2.36777 9.72764 2.11816 10.0265C2.29746 9.91045 2.31504 9.88584 2.51191 9.94913C2.31504 9.78038 2.4627 9.43584 2.46973 9.34795C2.47676 9.26006 2.43457 9.15459 2.3502 9.10186C2.20957 8.97178 1.89316 8.96827 1.71035 9.05264C1.43613 9.17217 1.42207 9.53077 1.4959 9.6503L2.51191 11.8476C2.56465 11.939 2.42402 12.2343 2.10059 12.2483C1.76309 12.2765 1.64355 11.9214 1.5873 11.7667L2.04785 11.8019C2.04785 11.8019 2.06543 11.7315 2.04785 11.6823C1.80879 11.6647 1.5873 11.6226 1.5873 11.6226L1.56973 11.3905H1.79121L1.77363 11.2851C1.77363 11.2851 1.58379 11.2991 1.5627 11.2851C1.54863 11.271 1.52754 11.0495 1.52754 11.0495C1.52754 11.0495 1.49238 11.039 1.45723 11.039C1.41504 11.039 1.37988 11.0495 1.37988 11.0495C1.37988 11.0495 1.3623 11.271 1.34473 11.2851C1.32715 11.2991 1.13379 11.2851 1.13379 11.2851L1.11621 11.3905H1.34473L1.32715 11.6226C1.32715 11.6226 1.10215 11.6647 0.863086 11.6823C0.845508 11.728 0.863086 11.7983 0.863086 11.7983L1.32715 11.7632C1.26738 11.9214 1.15137 12.2765 0.810352 12.2483C0.49043 12.2378 0.346289 11.939 0.402539 11.8476L1.41855 9.6503C1.48887 9.53077 1.4748 9.17217 1.2041 9.05264C1.01777 8.96827 0.704883 8.97178 0.560742 9.10186C0.479883 9.15459 0.437695 9.26006 0.444727 9.34795C0.451758 9.43584 0.595898 9.78037 0.399023 9.94561C0.595898 9.88233 0.613477 9.91045 0.792773 10.0265C0.543164 9.72764 0.560742 9.71358 0.595898 9.5378C0.775195 9.59756 1.04238 9.57295 1.04238 9.49209C1.04238 9.41123 0.97207 9.28467 0.866602 9.33741C0.761133 9.39014 0.936914 9.45342 0.810352 9.45342C0.687305 9.45342 0.599414 9.42881 0.599414 9.33741C0.599414 9.246 0.722461 9.14405 0.901758 9.14405C1.08105 9.14405 1.29199 9.23194 1.25684 9.55889C1.22168 9.88233 0.166992 11.6894 0.166992 11.9144C0.166992 12.1323 0.363867 12.4171 0.880664 12.4171C1.22168 12.4452 1.34121 12.0901 1.46426 11.9706H1.46777Z" fill="#F6D660"/>
<path fill-rule="evenodd" clip-rule="evenodd" d="M1.46816 6.01885C1.59121 5.89931 1.68965 5.54424 2.03066 5.56885C2.54746 5.56885 2.74434 5.85713 2.74434 6.07861C2.74434 6.29658 1.68965 8.10361 1.65449 8.43056C1.61934 8.754 1.83379 8.84541 2.01309 8.84541C2.18887 8.84541 2.31543 8.73994 2.31543 8.65205C2.31543 8.56416 2.22754 8.53252 2.10449 8.53252C1.98145 8.53252 2.15371 8.59931 2.04824 8.65205C1.94277 8.70478 1.87246 8.57471 1.87246 8.49385C1.87246 8.4165 2.13613 8.38838 2.31543 8.44814C2.35059 8.27236 2.36816 8.26181 2.11855 7.96299C2.29785 8.079 2.31543 8.10361 2.5123 8.04033C2.31543 8.20908 2.46309 8.55361 2.47012 8.63799C2.47715 8.72236 2.43496 8.83135 2.35059 8.88408C2.20996 9.01416 1.89355 9.02119 1.71074 8.93681C1.43652 8.81377 1.42246 8.45517 1.49629 8.33916L2.5123 6.14189C2.56504 6.05049 2.42441 5.75166 2.10098 5.7376C1.76348 5.71299 1.64395 6.06806 1.5877 6.22275L2.04824 6.1876C2.04824 6.1876 2.06582 6.25791 2.04824 6.30713C1.80918 6.32119 1.5877 6.36338 1.5877 6.36338L1.57012 6.59892H1.79863L1.77754 6.70439C1.77754 6.70439 1.5877 6.69033 1.5666 6.70439C1.54902 6.71494 1.53145 6.93642 1.53145 6.93642C1.53145 6.93642 1.49629 6.95049 1.46113 6.95049C1.41895 6.95049 1.38379 6.93642 1.38379 6.93642C1.38379 6.93642 1.36621 6.71494 1.34863 6.70439C1.33105 6.69033 1.1377 6.70439 1.1377 6.70439L1.12012 6.59892H1.34863L1.33105 6.36338C1.33105 6.36338 1.10605 6.32119 0.866992 6.30713C0.849414 6.26142 0.866992 6.1876 0.866992 6.1876L1.33105 6.22275C1.27129 6.06806 1.15527 5.71299 0.814258 5.7376C0.494336 5.75166 0.350195 6.05049 0.40293 6.14189L1.42246 8.33916C1.49277 8.45517 1.47871 8.81377 1.20801 8.93681C1.02168 9.02119 0.708789 9.01416 0.564648 8.88408C0.483789 8.83486 0.441602 8.72939 0.448633 8.63799C0.455664 8.54658 0.599805 8.20908 0.40293 8.04033C0.599805 8.10361 0.617383 8.079 0.79668 7.96299C0.550586 8.26181 0.564648 8.27588 0.599805 8.44814C0.779102 8.39189 1.04629 8.4165 1.04629 8.49385C1.04629 8.57119 0.975976 8.70478 0.870508 8.65205C0.761523 8.59931 0.94082 8.53252 0.814258 8.53252C0.691211 8.53252 0.60332 8.56064 0.60332 8.65205C0.60332 8.74346 0.726367 8.84541 0.905664 8.84541C1.08496 8.84541 1.2959 8.754 1.26074 8.43056C1.22559 8.10361 0.170898 6.29658 0.170898 6.0751C0.170898 5.85713 0.367773 5.56885 0.88457 5.56885C1.22559 5.54424 1.34512 5.89931 1.46816 6.01885Z" fill="#F6D660"/>
<path fill-rule="evenodd" clip-rule="evenodd" d="M1.46816 5.12213C1.59121 5.24166 1.68965 5.59322 2.03066 5.56861C2.54746 5.56861 2.74434 5.28385 2.74434 5.06236C2.74434 4.84088 1.68965 3.03385 1.65449 2.70689C1.61934 2.38346 1.83379 2.29205 2.01309 2.29205C2.18887 2.29205 2.31543 2.39752 2.31543 2.48541C2.31543 2.5733 2.22754 2.60494 2.10449 2.60494C1.98145 2.60494 2.15723 2.53814 2.04824 2.48541C1.93926 2.43268 1.87246 2.56627 1.87246 2.64361C1.87246 2.72096 2.13613 2.74908 2.31543 2.68932C2.35059 2.8651 2.36816 2.87564 2.11855 3.17447C2.29785 3.05846 2.31543 3.03385 2.5123 3.09713C2.31543 2.92838 2.46309 2.58385 2.47012 2.49947C2.47715 2.4151 2.43496 2.30611 2.35059 2.25338C2.20996 2.1233 1.89355 2.11627 1.71074 2.20064C1.43652 2.32369 1.42246 2.68229 1.49629 2.7983L2.5123 4.99557C2.56504 5.08697 2.42441 5.3858 2.10098 5.39986C1.76348 5.42447 1.64395 5.06939 1.5877 4.91471L2.04824 4.94986C2.04824 4.94986 2.06582 4.87955 2.04824 4.83033C1.89379 4.82026 1.74003 4.80148 1.5877 4.77408L1.57012 4.53853H1.7916L1.77402 4.43307C1.77402 4.43307 1.58418 4.44713 1.56309 4.43307C1.54902 4.42252 1.52793 4.20103 1.52793 4.20103C1.52793 4.20103 1.49277 4.18697 1.45762 4.18697C1.41543 4.18697 1.38027 4.20103 1.38027 4.20103C1.38027 4.20103 1.3627 4.42252 1.34512 4.43658C1.32754 4.44713 1.13418 4.43658 1.13418 4.43658L1.1166 4.54205H1.34512L1.32754 4.77408C1.32754 4.77408 1.10254 4.81627 0.863477 4.83033C0.853653 4.86957 0.853653 4.91062 0.863477 4.94986L1.32754 4.91471C1.26777 5.06939 1.15176 5.42447 0.810742 5.39986C0.49082 5.3858 0.34668 5.08697 0.40293 4.99557L1.41895 2.7983C1.48926 2.68229 1.4752 2.32369 1.20449 2.20064C1.01816 2.11627 0.705273 2.1233 0.561133 2.25338C0.480273 2.30611 0.438086 2.40807 0.445117 2.49947C0.452148 2.59088 0.596289 2.92838 0.399414 3.09713C0.596289 3.03385 0.613867 3.06197 0.793164 3.17447C0.543555 2.87564 0.561133 2.8651 0.596289 2.68932C0.775586 2.74557 1.04277 2.72447 1.04277 2.64361C1.04277 2.56275 0.972461 2.43268 0.866992 2.48541C0.761523 2.53814 0.937305 2.60494 0.810742 2.60494C0.687695 2.60494 0.599805 2.57682 0.599805 2.48541C0.599805 2.394 0.722852 2.29205 0.902148 2.29205C1.08145 2.29205 1.2959 2.38346 1.26074 2.70689C1.22559 3.03385 0.170898 4.84088 0.170898 5.06236C0.170898 5.28385 0.367773 5.56861 0.88457 5.56861C1.22559 5.59322 1.34512 5.24166 1.46816 5.12213Z" fill="#F6D660"/>
<path fill-rule="evenodd" clip-rule="evenodd" d="M1.51016 0.48171C1.6332 0.362179 1.59102 0.165304 1.93203 0.186398C2.44883 0.186398 2.46289 0.502804 2.46289 0.724289C2.46289 0.945773 1.68945 1.25515 1.6543 1.57859C1.61914 1.90554 1.83359 1.99694 2.01289 1.99694C2.18867 1.99694 2.31523 1.89148 2.31523 1.80007C2.31523 1.70866 2.22734 1.68757 2.10781 1.68757C1.98828 1.68757 2.16055 1.75437 2.05156 1.80359C1.94258 1.8528 1.87578 1.72624 1.87578 1.6489C1.87578 1.57155 2.14297 1.54343 2.31875 1.60319C2.35391 1.42741 2.375 1.41335 2.12187 1.11452C2.29766 1.23054 2.31875 1.25515 2.51211 1.19538C2.31523 1.36413 2.46289 1.70866 2.46992 1.79304C2.47695 1.87741 2.43477 1.9864 2.35391 2.03913C2.20977 2.16921 1.89687 2.17624 1.71055 2.09187C1.43633 1.96882 1.42227 1.61023 1.49609 1.49421L2.25195 0.720773C2.30469 0.625851 2.32227 0.372726 2.00234 0.358664C1.66133 0.334054 1.54531 0.798117 1.48555 0.949288C1.40469 0.780538 1.3168 0.316476 0.975781 0.341085C0.655859 0.355148 0.592578 0.608273 0.645312 0.699679L1.42227 1.49069C1.49258 1.60671 1.48203 1.9653 1.21133 2.08835C1.02148 2.17273 0.708594 2.16569 0.564453 2.03562C0.487109 1.98288 0.441406 1.88093 0.448437 1.78952C0.455469 1.69812 0.603125 1.36062 0.40625 1.19187C0.603125 1.25515 0.617188 1.22702 0.796484 1.11101C0.550391 1.40984 0.564453 1.42741 0.603125 1.59968C0.778906 1.53991 1.04961 1.56452 1.04961 1.64538C1.04961 1.72273 0.979297 1.85632 0.870312 1.80007C0.764844 1.75085 0.940625 1.68405 0.817578 1.68405C0.691016 1.68405 0.603125 1.71218 0.603125 1.80007C0.603125 1.88796 0.726172 1.99694 0.905469 1.99694C1.08477 1.99694 1.29922 1.90554 1.26055 1.57859C1.22539 1.25515 0.434375 0.90007 0.434375 0.678585C0.434375 0.457101 0.490625 0.186398 1.00742 0.186398C1.34844 0.161789 1.38711 0.362179 1.51016 0.48171Z" fill="#F6D660"/>
<path d="M13.2209 7.91567C13.2209 6.34975 11.8814 5.08032 10.2291 5.08032C8.57678 5.08032 7.2373 6.34975 7.2373 7.91567C7.2373 9.4816 8.57678 10.751 10.2291 10.751C11.8814 10.751 13.2209 9.4816 13.2209 7.91567Z" fill="#F6D660"/>
<path fill-rule="evenodd" clip-rule="evenodd" d="M10.0887 3.38926C10.0605 3.38926 9.92695 4.33145 9.87773 4.54238C9.82852 5.01699 10.5105 4.99941 10.398 4.5248L10.0887 3.38574V3.38926ZM10.3277 12.5229C10.3523 12.5229 10.5563 11.5912 10.623 11.3838C10.7039 10.9162 10.0219 10.8916 10.0957 11.3697L10.3277 12.5229ZM5.56055 7.89629C5.56055 7.9209 6.54141 8.11777 6.75937 8.18105C7.25156 8.26191 7.28672 7.61855 6.78047 7.68887L5.56055 7.8998V7.89629ZM15.1125 8.00879C15.1125 7.98418 14.1211 7.82246 13.8996 7.76621C13.4039 7.70644 13.4004 8.3498 13.8996 8.26191L15.1125 8.00879ZM6.56601 4.90801C6.54844 4.92559 7.19531 5.65684 7.32539 5.83613C7.66289 6.1877 8.10937 5.69551 7.66289 5.45644L6.56601 4.91152V4.90801ZM13.9875 10.9197C14.0051 10.9021 13.2949 10.2271 13.1473 10.0619C12.7781 9.73848 12.3809 10.2623 12.8449 10.4662L13.9875 10.9232V10.9197ZM8.04609 3.88848C8.025 3.89902 8.32734 4.80605 8.37656 5.02051C8.54531 5.46699 9.15703 5.1752 8.84062 4.79199L8.04961 3.88848H8.04609ZM12.3738 12.0588C12.3984 12.0482 12.1629 11.1236 12.1312 10.9092C11.9941 10.4521 11.3648 10.6982 11.6496 11.1061L12.3773 12.0553L12.3738 12.0588ZM13.4391 4.52129C13.418 4.50371 12.6375 5.10488 12.4477 5.22441C12.0715 5.54082 12.5812 5.96973 12.8414 5.55137L13.4391 4.52129ZM7.00547 11.3311C7.02305 11.3486 7.84922 10.8037 8.04609 10.6947C8.44336 10.4064 7.96875 9.94238 7.67695 10.3432L7.00898 11.3311H7.00547ZM5.775 6.26504C5.76445 6.28613 6.61875 6.78184 6.80508 6.91191C7.24453 7.14043 7.50117 6.54277 6.99844 6.44785L5.775 6.26504ZM14.6941 9.72441C14.7047 9.70332 13.8855 9.15137 13.7098 9.01074C13.2879 8.75059 12.9891 9.33066 13.4848 9.45723L14.6941 9.72441ZM11.8605 3.6459C11.8359 3.63887 11.3473 4.46855 11.2172 4.64785C11.2174 4.70511 11.2356 4.76085 11.2691 4.80727C11.3026 4.85368 11.3499 4.88844 11.4041 4.90666C11.4584 4.92488 11.517 4.92566 11.5718 4.90888C11.6265 4.89209 11.6746 4.8586 11.7094 4.81309L11.8605 3.6459ZM8.55937 12.2346C8.58398 12.2451 9.13242 11.4471 9.27305 11.2748C9.52969 10.867 8.90742 10.6068 8.79141 11.0779L8.55937 12.2346ZM5.83477 9.79824C5.84531 9.81933 6.81914 9.5873 7.04766 9.55215C7.52578 9.41855 7.25859 8.82793 6.83672 9.10215L5.83477 9.79824ZM14.6977 6.1877C14.6906 6.1666 13.7027 6.33184 13.4742 6.35293C12.982 6.45488 13.2105 7.06309 13.65 6.81699L14.6977 6.1877Z" fill="#F6D660"/>
<path fill-rule="evenodd" clip-rule="evenodd" d="M11.059 3.44907C11.0344 3.44556 10.7039 4.34204 10.6055 4.53892C10.4613 4.99595 11.1328 5.10845 11.1223 4.62329L11.0625 3.44556L11.059 3.44907ZM9.35391 12.4456C9.37852 12.4526 9.77578 11.5772 9.88828 11.3838C10.0641 10.9409 9.40312 10.7862 9.37851 11.2678L9.35039 12.4456H9.35391ZM9.01289 3.53696C8.98828 3.54399 9.07969 4.49321 9.07969 4.71118C9.14648 5.17876 9.80391 5.01704 9.58594 4.5811L9.01289 3.53696ZM11.4035 12.3928C11.4281 12.3893 11.4035 11.4366 11.4211 11.2186C11.3895 10.744 10.718 10.8635 10.9078 11.3135L11.4 12.3928H11.4035ZM7.31836 4.32446C7.29727 4.33853 7.76484 5.17876 7.85273 5.37915C8.10586 5.79048 8.65078 5.40376 8.26758 5.07681L7.31836 4.32446ZM13.1121 11.6334C13.1332 11.6194 12.7254 10.7475 12.6551 10.5436C12.4336 10.1182 11.8641 10.4698 12.2191 10.8178L13.1121 11.6334ZM6.08086 5.50571C6.0668 5.52681 6.82266 6.15259 6.98086 6.31431C7.37109 6.60962 7.7332 6.06118 7.25508 5.88892L6.08086 5.50571ZM14.3145 10.417C14.3285 10.3959 13.6219 9.72095 13.4742 9.5522C13.1086 9.23227 12.7078 9.7561 13.1719 9.96001L14.3145 10.417ZM5.53945 6.97876C5.53242 7.00337 6.46406 7.35845 6.66797 7.4604C7.13906 7.6186 7.29023 6.98931 6.77695 6.97524L5.53945 6.97876ZM14.9402 9.01079C14.9508 8.9897 14.0473 8.57485 13.8504 8.45884C13.3934 8.26899 13.193 8.88774 13.7027 8.93696L14.9402 9.01079ZM5.50781 8.78931C5.51133 8.8104 6.5168 8.79634 6.74531 8.81392C7.24453 8.78931 7.125 8.15298 6.64687 8.32524L5.50781 8.78931ZM15.007 7.20727C15.007 7.18267 14.0016 7.12993 13.7766 7.09829C13.2738 7.09126 13.3477 7.73462 13.8363 7.59048L15.007 7.20376V7.20727ZM6.36914 10.6666C6.3832 10.6877 7.2832 10.2588 7.49414 10.178C7.93008 9.94946 7.5293 9.42563 7.18125 9.78071L6.36914 10.6666ZM14.1844 5.31235C14.1703 5.29126 13.2457 5.6604 13.0242 5.7272C12.5707 5.92759 12.9328 6.47603 13.3055 6.14556L14.1844 5.31235ZM7.83164 11.9112C7.85273 11.9217 8.49609 11.1905 8.65781 11.0358C8.96367 10.6596 8.37656 10.3327 8.2043 10.7897L7.83164 11.9112ZM12.743 4.04321C12.7254 4.02915 12.0293 4.7147 11.857 4.85884C11.5266 5.21392 12.0891 5.57954 12.293 5.13657L12.7395 4.04321H12.743Z" fill="#F6D660"/>
<path fill-rule="evenodd" clip-rule="evenodd" d="M5.6554 9.80143C5.70911 9.98274 5.71678 10.9981 6.7986 11.9771C7.87275 12.949 9.71415 13.1665 9.71415 13.1665C9.71415 13.1665 9.72182 13.3043 9.59139 13.3116C9.46096 13.3261 8.83181 13.2028 8.51724 13.1085C8.21034 13.0215 7.93413 12.8619 7.90344 12.8692C7.86508 12.8837 7.8037 12.9852 7.71163 12.9707C7.61956 12.9562 7.17455 12.5211 6.97507 12.405C6.57607 12.079 6.22283 11.7062 5.92394 11.2954C5.70911 10.9691 5.6554 10.7515 5.58635 10.7515C5.5173 10.7515 5.2641 10.9111 5.2641 10.9111C5.2641 10.9111 5.03393 10.5847 4.83444 10.0625C4.62729 9.54035 4.6503 9.23575 4.69634 9.21399C4.75005 9.19223 4.75004 9.59837 4.90349 9.96824C5.05694 10.3454 5.27178 10.4614 5.27178 10.4614C5.27178 10.4614 5.13367 10.2656 5.02626 9.77968C4.91884 9.29377 4.87281 8.82236 4.94953 8.67731C5.02626 8.53227 5.09531 8.48875 5.10298 8.49601C5.11833 8.51051 4.97255 8.72083 5.07229 9.27926C5.17203 9.8377 5.44057 10.3091 5.50195 10.2873C5.56333 10.2656 5.46359 10.1495 5.42523 9.82319C5.38686 9.49683 5.46359 9.29377 5.54799 9.26476C5.58635 9.23575 5.64773 9.62738 5.6554 9.80143ZM4.90349 10.7297C4.69634 10.5484 4.37409 9.91747 4.30504 9.94648C4.22832 9.98274 4.82677 10.8893 4.84212 10.9618C4.85746 11.0488 4.98789 11.2954 4.88815 11.2592C4.78841 11.2229 4.07487 10.5122 4.15926 10.65C4.24366 10.7878 4.78073 11.4115 4.75004 11.4477C4.71935 11.484 4.30504 11.0996 4.28969 11.1504C4.28202 11.1939 4.69634 11.571 4.68867 11.6145C4.68099 11.658 4.42013 11.3752 4.42013 11.4332C4.42013 11.4912 4.68867 11.7741 4.68867 11.8176C4.68867 11.8611 4.45849 11.6145 4.53522 11.7451C4.60427 11.8901 4.80375 12.0134 4.79608 12.0569C4.78841 12.1004 4.62729 11.9989 4.62729 12.0207C4.62729 12.0424 4.92651 12.144 4.99557 12.2237C5.07229 12.3035 5.56333 12.8402 5.93161 13.1085C6.29989 13.3769 7.35869 13.8483 7.43542 13.8483C7.50447 13.8483 7.61189 13.7032 7.58887 13.6452C7.56585 13.5872 6.53006 13.2536 6.24618 13.007C5.95463 12.7604 5.24876 12.1657 5.18738 12.1367C5.13367 12.1004 4.97255 12.1149 4.97255 12.0787C4.97255 12.0424 5.17971 12.1004 5.16436 12.0787C5.15669 12.0569 4.88048 11.9409 4.88815 11.9191C4.9035 11.8974 5.07996 11.9626 5.07996 11.9409C5.07996 11.9191 4.75772 11.7523 4.77306 11.7161C4.78074 11.6798 5.01091 11.8176 5.01091 11.7886C5.01091 11.7741 4.70401 11.571 4.71168 11.5348C4.71935 11.4985 4.94953 11.6943 4.94186 11.6508C4.93418 11.6073 4.75772 11.3607 4.75772 11.3317C4.75772 11.2954 5.03393 11.5783 5.06462 11.5202C5.07996 11.4695 4.96488 10.9981 4.97255 10.9908C4.98022 10.9836 5.1797 11.0924 5.21039 11.0271C5.24876 10.9546 5.07229 10.8603 4.90349 10.7297ZM8.44052 14.2979C8.29474 14.3197 8.22569 14.2689 8.31009 14.1529C8.42517 14.1529 8.73207 14.0586 8.83949 14.0151C8.9469 13.9716 9.06199 13.9135 9.15406 13.8338C9.24613 13.7395 9.30751 13.8845 9.2538 13.9643C9.21544 14.0151 9.03897 14.1093 8.90854 14.1601C8.71673 14.2181 8.54793 14.3052 8.44052 14.2979ZM9.39958 13.928C9.29984 13.8265 9.38424 13.754 9.53001 13.6742C9.74484 13.5654 9.68346 13.4131 9.95967 13.2898C10.0824 13.2173 11.8011 12.5646 12.3612 12.2165C12.9213 11.8684 14.4941 10.7442 14.9161 9.96824C15.3304 9.19949 15.1309 9.14147 15.1923 9.11246C15.246 9.0762 15.3074 9.22124 15.2997 9.3953C15.2844 9.56211 15.1463 10.0698 15.1923 10.1205C15.2384 10.1713 15.8215 9.72166 16.067 9.17773C16.3125 8.6338 16.4966 8.06812 16.6117 8.06812C16.7345 8.06812 16.4122 8.99642 16.2051 9.35904C16.0056 9.72166 15.7678 9.90297 15.8215 9.98274C15.8828 10.0553 16.4813 9.58386 16.6885 9.23575C16.8879 8.88038 17.0798 8.56853 17.1181 8.6338C17.0571 9.05864 16.8799 9.46108 16.6041 9.80143C16.2818 10.1495 15.8982 10.4034 15.9596 10.4541C16.0133 10.5122 16.4506 10.5702 16.9033 10.2801C17.3636 9.98274 17.4097 9.55485 17.4634 9.57661C17.5248 9.59837 17.4097 10.1858 16.9723 10.5484C16.535 10.9111 15.9596 10.9473 15.9749 11.0271C16.0056 11.0996 17.2255 10.6935 17.2025 10.7878C17.1795 10.8748 15.622 11.455 15.6066 11.513C15.6066 11.5565 15.8752 11.571 16.2972 11.4767C16.7115 11.3897 17.1104 11.0779 17.1642 11.1504C17.1795 11.2519 16.8649 11.4985 16.3892 11.6145C15.9059 11.7306 15.668 11.8829 15.6527 11.9191C15.645 11.9554 16.512 11.8176 16.512 11.8611C16.512 11.9046 15.3765 12.1149 15.3688 12.173C15.3534 12.2237 16.4429 11.9626 16.4276 12.0279C16.3969 12.0787 14.9468 12.4848 14.9621 12.5066C14.9698 12.5356 16.1744 12.26 16.1514 12.3035C16.1207 12.3543 14.1258 12.8837 14.1105 12.92C14.0951 12.949 15.8752 12.5428 15.8598 12.5791C15.8445 12.6154 14.9391 12.8257 14.9391 12.8474C14.9391 12.8692 15.668 12.7386 15.6527 12.7749C15.645 12.8039 13.8113 13.2463 13.7729 13.3116C13.7345 13.3841 14.7243 13.1303 14.709 13.2608C14.6936 13.3914 12.5837 14.0586 12.576 13.9353C12.5606 13.812 13.8573 13.5001 13.8496 13.4639C13.8343 13.4276 13.1054 13.5364 13.0901 13.4711C13.0824 13.3986 13.5734 13.2536 13.5351 13.2246C13.4967 13.1883 13.1284 13.3261 13.1591 13.2463C13.1975 13.1665 13.8957 12.8619 13.8803 12.8402C13.8726 12.8184 13.6271 12.9127 13.6501 12.8402C13.6808 12.7604 15.1616 12.3543 15.1386 12.3035C15.1156 12.26 14.4558 12.405 14.3944 12.4195C14.3714 12.376 15.3151 12.0424 15.2997 11.9844C15.269 11.9336 14.7933 12.1802 14.7627 12.1149C14.7473 12.0424 15.599 11.7306 15.5453 11.6798C15.4915 11.629 15.1079 11.8103 15.0542 11.7596C15.0005 11.7088 15.8598 11.1504 15.7294 11.1359C15.599 11.1286 15.4378 11.3099 15.4225 11.1939C15.4378 11.0488 16.09 10.8095 15.9442 10.6935C15.714 10.6282 14.9391 10.7442 14.6169 10.9256C14.2946 11.1069 13.2205 12.1149 12.9596 12.2745C12.6988 12.4268 11.8087 12.7822 11.64 12.8547C11.3791 12.9417 11.3331 13.0723 11.0645 13.2028C10.5811 13.3261 10.5888 13.4639 10.3586 13.5437C10.2742 13.5654 9.40725 13.957 9.39958 13.928ZM8.18733 14.4357C8.04155 14.5082 7.91112 14.6823 7.99551 14.7548C8.04155 14.8418 8.18733 14.559 8.30241 14.5735L8.91621 14.6025C9.24613 14.6243 9.40725 14.5372 9.59139 14.5517C9.77553 14.5662 10.1822 14.4575 10.374 14.4575C10.5658 14.4575 10.6042 14.4792 10.6195 14.3994C10.6425 14.3269 10.0211 14.3777 9.74484 14.3704C9.46863 14.3559 9.12337 14.4212 8.91621 14.4212C8.7244 14.414 8.39448 14.3559 8.18733 14.4357Z" fill="#F6D660"/>
<path d="M9.1077 14.3486C9.1077 14.2885 9.04926 14.2397 8.97719 14.2397C8.90511 14.2397 8.84668 14.2885 8.84668 14.3486C8.84668 14.4087 8.90511 14.4574 8.97719 14.4574C9.04926 14.4574 9.1077 14.4087 9.1077 14.3486Z" fill="#F6D660"/>
<path fill-rule="evenodd" clip-rule="evenodd" d="M12.1688 14.1384C12.2992 14.1167 12.6521 14.2327 12.8976 14.2835C13.3426 14.4503 14.1713 14.3705 14.1713 14.4503C14.1713 14.5301 14.1176 14.6243 13.9258 14.6388C13.7339 14.6533 13.2506 14.5663 13.2659 14.5663C13.2813 14.5663 13.6495 14.7331 13.5421 14.7766C13.4347 14.8202 13.1201 14.6824 13.0664 14.7186C13.0127 14.7549 13.358 14.8202 13.2966 14.8419C13.2506 14.8637 13.0127 14.8129 12.936 14.8202C12.8593 14.8347 12.9974 14.9144 12.9053 14.9434C12.8132 14.9797 12.6598 14.8999 12.5984 14.9217C12.5294 14.9434 12.7365 15.0667 12.6444 15.0812C12.5524 15.0957 12.3375 15.0232 12.2148 15.0087C12.092 15.0087 12.3299 15.1248 12.2531 15.1393C12.1764 15.1465 11.9616 15.045 11.9079 15.045C11.8542 15.045 11.9079 15.19 11.8312 15.19C11.7544 15.19 11.6624 15.0667 11.6163 15.0667C11.5703 15.0667 11.6163 15.2118 11.5396 15.2118C11.4629 15.2118 11.4322 15.0595 11.3708 15.0667C11.2941 15.0812 11.3708 15.2625 11.2634 15.248C11.1637 15.2408 11.1483 15.0595 11.0639 15.0667C10.9872 15.0812 11.0793 15.248 11.0025 15.248C10.9258 15.248 10.9105 15.0812 10.8337 15.0667C10.757 15.0595 10.7877 15.2263 10.7417 15.2263C10.6956 15.2263 10.6496 15.0667 10.6189 15.0667C10.5959 15.0667 10.6189 15.2263 10.5268 15.2118C10.4348 15.1973 10.4348 15.0377 10.4118 15.045C10.3811 15.0595 10.3811 15.1755 10.3197 15.1755C10.2583 15.1755 10.2506 15.0595 10.2276 15.074C10.1969 15.0812 10.1048 15.2263 10.0435 15.2045C9.97442 15.1828 10.0588 15.0667 10.0281 15.0667C9.99744 15.0667 9.92071 15.1465 9.87468 15.1393C9.82864 15.132 9.87467 15.0377 9.85933 15.0377C9.84398 15.0377 9.7289 15.0957 9.67519 15.0957C9.62148 15.0957 9.4757 15.1683 9.43734 15.103C9.39898 15.0305 9.53709 15.0305 9.56778 14.9652C9.59079 14.8999 9.49105 14.7041 9.59846 14.6388C9.69821 14.5663 10.0281 14.7331 10.5192 14.6171C11.4092 14.3923 12.0997 14.1312 12.1688 14.1384Z" fill="#F6D660"/>
</svg>
