<svg width="16" height="16" viewBox="0 0 16 16" fill="none" xmlns="http://www.w3.org/2000/svg">
<g clip-path="url(#clip0_742_3828)">
<path d="M5.99365 0H18.7937V16H5.99365V0Z" fill="#ED5565"/>
<path d="M-2.53955 0H5.99378V16H-2.53955V0Z" fill="#52C162"/>
<path d="M3.88184 8.39232C3.88236 8.66832 3.93763 8.94148 4.04443 9.19598C4.15124 9.45048 4.30746 9.68127 4.50406 9.87499C4.69826 10.0722 4.92956 10.229 5.18464 10.3364C5.43972 10.4438 5.71352 10.4997 5.99029 10.5008C6.55041 10.5007 7.08758 10.2782 7.48362 9.8821C7.67953 9.68731 7.83503 9.45574 7.9412 9.20069C8.04737 8.94565 8.10211 8.67214 8.10229 8.39587V5.57986L3.88184 5.57275V8.39232Z" fill="white"/>
<path d="M3.95996 8.39596C3.96071 8.66072 4.01388 8.9227 4.11641 9.16681C4.21893 9.41091 4.36877 9.63229 4.5573 9.81818C4.93584 10.1987 5.44989 10.4135 5.98663 10.4155C6.52244 10.4158 7.03648 10.2035 7.41597 9.8253C7.60385 9.63911 7.75304 9.41759 7.85495 9.1735C7.95685 8.92941 8.00947 8.66758 8.00975 8.40307V5.66528H3.96707V8.39596H3.95996ZM7.20264 6.48662V8.22529L7.19908 8.40662C7.20028 8.56547 7.16941 8.72292 7.10831 8.86955C7.04722 9.01617 6.95716 9.14896 6.84352 9.25996C6.61742 9.48685 6.31051 9.61473 5.99019 9.61552C5.65597 9.61552 5.36085 9.47329 5.14041 9.25285C4.91352 9.02674 4.78564 8.71983 4.78485 8.39951V6.47951L7.20264 6.48662Z" fill="#ED5565"/>
<path d="M5.73048 8.08639C5.72984 8.16144 5.75781 8.23391 5.8087 8.28906C5.83245 8.31561 5.86147 8.33692 5.89392 8.35161C5.92637 8.3663 5.96153 8.37406 5.99715 8.37439C6.07181 8.37439 6.13937 8.33884 6.18559 8.28906C6.23649 8.23391 6.26446 8.16144 6.26381 8.08639V7.70239H5.73048V8.08639Z" fill="#003399"/>
<path d="M5.85509 7.90159C5.88455 7.90159 5.90843 7.87771 5.90843 7.84826C5.90843 7.8188 5.88455 7.79492 5.85509 7.79492C5.82564 7.79492 5.80176 7.8188 5.80176 7.84826C5.80176 7.87771 5.82564 7.90159 5.85509 7.90159Z" fill="white"/>
<path d="M6.15001 7.90159C6.17947 7.90159 6.20335 7.87771 6.20335 7.84826C6.20335 7.8188 6.17947 7.79492 6.15001 7.79492C6.12056 7.79492 6.09668 7.8188 6.09668 7.84826C6.09668 7.87771 6.12056 7.90159 6.15001 7.90159Z" fill="white"/>
<path d="M6.0006 8.04392C6.03005 8.04392 6.05393 8.02004 6.05393 7.99059C6.05393 7.96113 6.03005 7.93726 6.0006 7.93726C5.97114 7.93726 5.94727 7.96113 5.94727 7.99059C5.94727 8.02004 5.97114 8.04392 6.0006 8.04392Z" fill="white"/>
<path d="M5.85509 8.19334C5.88455 8.19334 5.90843 8.16946 5.90843 8.14C5.90843 8.11055 5.88455 8.08667 5.85509 8.08667C5.82564 8.08667 5.80176 8.11055 5.80176 8.14C5.80176 8.16946 5.82564 8.19334 5.85509 8.19334Z" fill="white"/>
<path d="M6.15001 8.19334C6.17947 8.19334 6.20335 8.16946 6.20335 8.14C6.20335 8.11055 6.17947 8.08667 6.15001 8.08667C6.12056 8.08667 6.09668 8.11055 6.09668 8.14C6.09668 8.16946 6.12056 8.19334 6.15001 8.19334Z" fill="white"/>
</g>
<defs>
<clipPath id="clip0_742_3828">
<path d="M0 8C0 3.58172 3.58172 0 8 0C12.4183 0 16 3.58172 16 8C16 12.4183 12.4183 16 8 16C3.58172 16 0 12.4183 0 8Z" fill="white"/>
</clipPath>
</defs>
</svg>
