<svg width="14" height="14" viewBox="0 0 14 14" fill="none" xmlns="http://www.w3.org/2000/svg">
<g clip-path="url(#clip0_662_5550)">
<path d="M0 9.33252H14V14.0001H0V9.33252Z" fill="#52C162"/>
<path d="M0 0H14V4.66758H0V0Z" fill="#3BAFDA"/>
<path d="M0 4.47888H14V9.52107H0V4.47888Z" fill="#ED5565"/>
<path d="M0 4.75781H14V9.24219H0V4.75781Z" fill="white"/>
<path d="M2.8 2.23945C2.8 1.4082 3.4043 0.716406 4.2 0.585156C4.10977 0.56875 4.0168 0.560547 3.92109 0.560547C2.99414 0.560547 2.24219 1.3125 2.24219 2.23945C2.24219 3.16641 2.99414 3.91836 3.92109 3.91836C4.0168 3.91836 4.10977 3.91016 4.2 3.89375C3.4043 3.7625 2.8 3.0707 2.8 2.23945Z" fill="white"/>
<path d="M7.69141 3.47554L7.61484 3.24585L7.53828 3.47554L7.29492 3.47827L7.4918 3.62319L7.41797 3.85288L7.61484 3.71343L7.81172 3.85288L7.73789 3.62319L7.93477 3.47827L7.69141 3.47554Z" fill="white"/>
<path d="M7.61484 1.90308L7.53828 2.13276L7.29492 2.1355L7.4918 2.27769L7.41797 2.51011L7.61484 2.36792L7.81172 2.51011L7.73789 2.27769L7.93477 2.1355L7.69141 2.13276L7.61484 1.90308Z" fill="white"/>
<path d="M7.61484 0.557861L7.53828 0.787549L7.29492 0.790283L7.4918 0.935205L7.41797 1.16489L7.61484 1.02544L7.81172 1.16489L7.73789 0.935205L7.93477 0.790283L7.69141 0.787549L7.61484 0.557861Z" fill="white"/>
<path d="M9.03711 3.47554L8.96055 3.24585L8.88125 3.47554L8.64062 3.47827L8.83477 3.62319L8.76094 3.85288L8.96055 3.71343L9.15742 3.85288L9.08359 3.62319L9.27773 3.47827L9.03711 3.47554Z" fill="white"/>
<path d="M8.96055 1.90308L8.88125 2.13276L8.64062 2.1355L8.83477 2.27769L8.76094 2.51011L8.96055 2.36792L9.15742 2.51011L9.08359 2.27769L9.27773 2.1355L9.03711 2.13276L8.96055 1.90308Z" fill="white"/>
<path d="M8.96055 0.557861L8.88125 0.787549L8.64062 0.790283L8.83477 0.935205L8.76094 1.16489L8.96055 1.02544L9.15742 1.16489L9.08359 0.935205L9.27773 0.790283L9.03711 0.787549L8.96055 0.557861Z" fill="white"/>
<path d="M10.3799 3.47554L10.3033 3.24585L10.2268 3.47554L9.9834 3.47827L10.1803 3.62319L10.1064 3.85288L10.3033 3.71343L10.5002 3.85288L10.4264 3.62319L10.6232 3.47827L10.3799 3.47554Z" fill="white"/>
<path d="M10.3033 1.90308L10.2268 2.13276L9.9834 2.1355L10.1803 2.27769L10.1064 2.51011L10.3033 2.36792L10.5002 2.51011L10.4264 2.27769L10.6232 2.1355L10.3799 2.13276L10.3033 1.90308Z" fill="white"/>
<path d="M10.1803 0.935205L10.1064 1.16489L10.3033 1.02544L10.5002 1.16489L10.4264 0.935205L10.6232 0.790283L10.3799 0.787549L10.3033 0.557861L10.2268 0.787549L9.9834 0.790283L10.1803 0.935205Z" fill="white"/>
<path d="M5.00391 3.47554L4.92734 3.24585L4.85078 3.47554L4.60742 3.47827L4.8043 3.62319L4.73047 3.85288L4.92734 3.71343L5.12422 3.85288L5.05039 3.62319L5.24727 3.47827L5.00391 3.47554Z" fill="white"/>
<path d="M6.34961 3.47554L6.27031 3.24585L6.19375 3.47554L5.95312 3.47827L6.14727 3.62319L6.07344 3.85288L6.27031 3.71343L6.46992 3.85288L6.39609 3.62319L6.59023 3.47827L6.34961 3.47554Z" fill="white"/>
<path d="M6.27031 1.90308L6.19375 2.13276L5.95312 2.1355L6.14727 2.27769L6.07344 2.51011L6.27031 2.36792L6.46992 2.51011L6.39609 2.27769L6.59023 2.1355L6.34961 2.13276L6.27031 1.90308Z" fill="white"/>
</g>
<defs>
<clipPath id="clip0_662_5550">
<rect width="14" height="14" fill="white"/>
</clipPath>
</defs>
</svg>
